<svg width="30" height="30" viewBox="0 0 30 30" fill="none" xmlns="http://www.w3.org/2000/svg">
<path fill-rule="evenodd" clip-rule="evenodd" d="M14.9998 4.6665C11.502 4.6665 8.6665 7.50203 8.6665 10.9998C8.6665 14.4976 11.502 17.3332 14.9998 17.3332C18.4976 17.3332 21.3332 14.4976 21.3332 10.9998C21.3332 7.50203 18.4976 4.6665 14.9998 4.6665ZM10.6665 10.9998C10.6665 8.6066 12.6066 6.6665 14.9998 6.6665C17.3931 6.6665 19.3332 8.6066 19.3332 10.9998C19.3332 13.3931 17.3931 15.3332 14.9998 15.3332C12.6066 15.3332 10.6665 13.3931 10.6665 10.9998Z" fill="#212121"/>
<path fill-rule="evenodd" clip-rule="evenodd" d="M14.9998 0.666504C7.08376 0.666504 0.666504 7.08376 0.666504 14.9998C0.666504 19.0645 2.35969 22.7353 5.07651 25.3426C7.65094 27.8132 11.1489 29.3332 14.9998 29.3332C18.8507 29.3332 22.3487 27.8132 24.9232 25.3426C27.64 22.7353 29.3332 19.0645 29.3332 14.9998C29.3332 7.08376 22.9159 0.666504 14.9998 0.666504ZM2.6665 14.9998C2.6665 8.18833 8.18833 2.6665 14.9998 2.6665C21.8113 2.6665 27.3332 8.18833 27.3332 14.9998C27.3332 17.9262 26.3149 20.6136 24.6117 22.7287C23.553 20.7102 21.4379 19.3332 18.9998 19.3332H10.9998C8.56175 19.3332 6.44668 20.7102 5.38796 22.7287C3.68479 20.6136 2.6665 17.9262 2.6665 14.9998ZM18.9998 21.3332C20.9117 21.3332 22.536 22.5721 23.1107 24.2912C20.9418 26.1863 18.1057 27.3332 14.9998 27.3332C11.894 27.3332 9.05787 26.1863 6.88899 24.2912C7.46372 22.5721 9.08801 21.3332 10.9998 21.3332H18.9998Z" fill="#212121"/>
</svg>
