<svg width="28" height="28" viewBox="0 0 28 28" fill="none" xmlns="http://www.w3.org/2000/svg">
<path d="M9.83333 3H5.16667C4.52233 3 4 3.52233 4 4.16667V8.83333" stroke="#12D18E" stroke-linecap="round" stroke-linejoin="round"/>
<path d="M9.83333 24.0003H5.16667C4.52233 24.0003 4 23.478 4 22.8337V18.167" stroke="#12D18E" stroke-linecap="round" stroke-linejoin="round"/>
<path d="M19.167 24.0003H23.8337C24.478 24.0003 25.0003 23.478 25.0003 22.8337V18.167" stroke="#12D18E" stroke-linecap="round" stroke-linejoin="round"/>
<path d="M19.167 3H23.8337C24.478 3 25.0003 3.52233 25.0003 4.16667V8.83333" stroke="#12D18E" stroke-linecap="round" stroke-linejoin="round"/>
<path d="M14.142 14.8573C16.0356 14.8573 17.5707 13.3222 17.5707 11.4286C17.5707 9.53509 16.0356 8 14.142 8C12.2485 8 10.7134 9.53509 10.7134 11.4286C10.7134 13.3222 12.2485 14.8573 14.142 14.8573Z" stroke="#12D18E" stroke-linejoin="round"/>
<path d="M19.2859 20.0004C19.2859 17.16 16.9833 14.8574 14.143 14.8574C11.3026 14.8574 9 17.16 9 20.0004" stroke="#12D18E" stroke-linecap="round" stroke-linejoin="round"/>
</svg>
