<svg width="18" height="18" viewBox="0 0 18 18" fill="none" xmlns="http://www.w3.org/2000/svg">
<path d="M17.6486 7.36875H9.18066V10.8492H14.0182C13.8096 11.9742 13.1768 12.9258 12.2229 13.5633C11.4166 14.1023 10.3877 14.4211 9.17832 14.4211C6.83691 14.4211 4.85645 12.8391 4.14863 10.7133C3.97051 10.1742 3.86738 9.59766 3.86738 9.00469C3.86738 8.41172 3.97051 7.83516 4.14863 7.29609C4.85879 5.17266 6.83926 3.59063 9.18066 3.59063C10.5002 3.59063 11.6838 4.04531 12.6166 4.93594L15.1947 2.35547C13.6361 0.902344 11.6041 0.0117188 9.18066 0.0117188C5.66738 0.0117188 2.62754 2.02734 1.14863 4.96641C0.539258 6.18047 0.192383 7.55391 0.192383 9.00703C0.192383 10.4602 0.539258 11.8312 1.14863 13.0453C2.62754 15.9844 5.66738 18 9.18066 18C11.6088 18 13.6432 17.1938 15.1291 15.8203C16.8283 14.2547 17.8104 11.9484 17.8104 9.20859C17.8104 8.57109 17.7541 7.95937 17.6486 7.36875Z" fill="white"/>
</svg>
