<svg width="375" height="304" viewBox="0 0 375 304" fill="none" xmlns="http://www.w3.org/2000/svg">
<path d="M16.5 122.532C7.5 110.032 6.5 111.532 6 112.532C2.27965 125.385 0.847072 126.34 0 124.22V304H375V48.5477C373.784 51.3905 371.992 55.9717 369.5 63.0332C363.5 80.0332 362 75.0332 358 68.0332C354 61.0332 353 31.533 346.5 30.033C340 28.533 332 78.533 330 99.5326C328 120.532 326.5 118.033 326 116.533C324 109.033 323 104.533 321.5 106.033C320 107.533 316 134.033 313.5 152.033C311 170.033 309.5 168.033 309 165.533C308.5 163.033 300.5 78.5328 299.5 70.0328C298.5 61.5328 297.5 62.0328 296 64.0328C294.5 66.0328 289 95.0328 285 95.0328C281 95.0328 279.5 90.0328 278.5 88.5328C275 80.5326 273 86.0328 272.5 87.5328C267.5 99.5328 265 126.033 264 135.033C263 144.033 260.5 142.033 259.5 140.533C251 126.533 251 131.033 250.5 132.033C250 133.033 249.5 137.033 248 152.033C246.5 167.033 244.5 159.033 244.5 157.033C241.5 141.033 239 110.033 237 99.5326C235 89.0325 232 88.5328 229.5 95.0328C227 101.533 224 128.533 223 138.533C222 148.533 221 148.533 220 147.033C219 145.533 214.5 131.533 214 128.533C213.5 125.533 210.5 120.033 205 99.5326C199.5 79.0323 198.5 84.5328 198 86.0328C197.5 87.5328 195 106.533 194 114.033C193 121.533 192 116.533 191.5 114.033C191 111.533 187 86.033 187 81.033C187 76.033 183 65.033 179.5 88.5328C176 112.033 174.5 107.033 174 106.533C168.4 92.5333 165.667 94.0331 165 96.533C159 110.533 158 111.033 157.5 108.033C157 105.032 156.5 105.033 153.5 91.0328C150.5 77.0328 148 84.5328 146 88.5328C144 92.5328 139.5 125.033 137.5 135.033C135.5 145.033 134 141.033 133 138.533C132 136.033 129.5 127.033 126.5 110.033C123.5 93.0327 122.5 98.0326 122 99.5326C121.5 101.033 120.5 101.532 118.5 122.532C116.5 143.532 113.5 153.033 111 159.533C108.5 166.033 107.5 164.533 106 161.533C104.5 158.533 102.5 138.533 101 115.033C99.8 96.2326 98.5 98.1992 98 101.532C96 112.032 95 120.032 93 121.033C91 122.033 89.5 121.533 88 124.033C86.5 126.533 79.5 196.033 79 209.533C78.5 223.033 74 222.5 74 216.033C74.5 195.533 69.5 120.533 68 110.033C66.5 99.5326 64 103.033 63 108.033C62 113.033 60.5 134.033 60 137.033C57.5 151.533 56.5 143.033 56 140.033C54 107.033 50.5 118.033 50.5 119.533C47.5 141.533 45 144.033 43 148.033C39.5 154.533 38 160.533 37 162.533C32.5 171.533 31 169.533 30.5 168.533C27 163.533 26 132.032 24.5 112.532C23 93.0324 21.5 101.032 21.5 101.532C18.5 123.532 17 123.532 16.5 122.532Z" fill="url(#paint0_linear_375_1484)" fill-opacity="0.5"/>
<path d="M-1 120.032C0 124.532 0.5 131.532 6 112.532C6.5 111.532 7.5 110.032 16.5 122.532C17 123.532 18.5 123.532 21.5 101.532C21.5 101.032 23 93.0324 24.5 112.532C26 132.032 27 163.533 30.5 168.533C31 169.533 32.5 171.533 37 162.533C38 160.533 39.5 154.533 43 148.033C45 144.033 47.5 141.533 50.5 119.533C50.5 118.033 54 107.033 56 140.033C56.5 143.033 57.5 151.533 60 137.033C60.5 134.033 62 113.033 63 108.033C64 103.033 66.5 99.5326 68 110.033C69.5 120.533 74.5 195.533 74 216.033C74 222.5 78.5 223.033 79 209.533C79.5 196.033 86.5 126.533 88 124.033C89.5 121.533 91 122.033 93 121.033C95 120.032 96 112.032 98 101.532C98.5 98.1992 99.8 96.2326 101 115.033C102.5 138.533 104.5 158.533 106 161.533C107.5 164.533 108.5 166.033 111 159.533C113.5 153.033 116.5 143.532 118.5 122.532C120.5 101.532 121.5 101.033 122 99.5326C122.5 98.0326 123.5 93.0327 126.5 110.033C129.5 127.033 132 136.033 133 138.533C134 141.033 135.5 145.033 137.5 135.033C139.5 125.033 144 92.5328 146 88.5328C148 84.5328 150.5 77.0328 153.5 91.0328C156.5 105.033 157 105.032 157.5 108.033C158 111.033 159 110.533 165 96.533C165.667 94.0331 168.4 92.5333 174 106.533C174.5 107.033 176 112.033 179.5 88.5328C183 65.033 187 76.033 187 81.033C187 86.033 191 111.533 191.5 114.033C192 116.533 193 121.533 194 114.033C195 106.533 197.5 87.5328 198 86.0328C198.5 84.5328 199.5 79.0323 205 99.5326C210.5 120.033 213.5 125.533 214 128.533C214.5 131.533 219 145.533 220 147.033C221 148.533 222 148.533 223 138.533C224 128.533 227 101.533 229.5 95.0328C232 88.5328 235 89.0325 237 99.5326C239 110.033 241.5 141.033 244.5 157.033C244.5 159.033 246.5 167.033 248 152.033C249.5 137.033 250 133.033 250.5 132.033C251 131.033 251 126.533 259.5 140.533C260.5 142.033 263 144.033 264 135.033C265 126.033 267.5 99.5328 272.5 87.5328C273 86.0328 275 80.5326 278.5 88.5328C279.5 90.0328 281 95.0328 285 95.0328C289 95.0328 294.5 66.0328 296 64.0328C297.5 62.0328 298.5 61.5328 299.5 70.0328C300.5 78.5328 308.5 163.033 309 165.533C309.5 168.033 311 170.033 313.5 152.033C316 134.033 320 107.533 321.5 106.033C323 104.533 324 109.033 326 116.533C326.5 118.033 328 120.532 330 99.5326C332 78.533 340 28.533 346.5 30.033C353 31.533 354 61.0332 358 68.0332C362 75.0332 363.5 80.0332 369.5 63.0332C374.3 49.4332 376.5 45.0332 377 44.5332" stroke="white" stroke-width="4" stroke-linecap="round"/>
<circle cx="347" cy="27" r="6" fill="#12D18E" stroke="white" stroke-width="4"/>
<circle cx="75" cy="220" r="6" fill="#12D18E" stroke="white" stroke-width="4"/>
<path d="M289.533 13.0909V2.18182H290.232V13.0909H289.533ZM291.719 5.56534C291.673 5.16193 291.486 4.84943 291.156 4.62784C290.827 4.40341 290.412 4.29119 289.912 4.29119C289.554 4.29119 289.244 4.34801 288.983 4.46165C288.722 4.57244 288.518 4.72585 288.374 4.92188C288.232 5.11506 288.161 5.33523 288.161 5.58239C288.161 5.78977 288.209 5.96875 288.305 6.11932C288.405 6.26989 288.534 6.39631 288.693 6.49858C288.855 6.59801 289.028 6.68182 289.213 6.75C289.398 6.81534 289.575 6.86932 289.746 6.91193L290.598 7.13352C290.876 7.2017 291.162 7.29403 291.455 7.41051C291.747 7.52699 292.018 7.6804 292.268 7.87074C292.518 8.06108 292.72 8.29688 292.874 8.57812C293.03 8.85938 293.108 9.19602 293.108 9.58807C293.108 10.0824 292.98 10.5213 292.724 10.9048C292.472 11.2884 292.104 11.5909 291.621 11.8125C291.141 12.0341 290.56 12.1449 289.878 12.1449C289.224 12.1449 288.659 12.0412 288.182 11.8338C287.705 11.6264 287.331 11.3324 287.061 10.9517C286.791 10.5682 286.642 10.1136 286.614 9.58807H287.935C287.96 9.90341 288.063 10.1662 288.241 10.3764C288.423 10.5838 288.655 10.7386 288.936 10.8409C289.22 10.9403 289.531 10.9901 289.869 10.9901C290.241 10.9901 290.572 10.9318 290.862 10.8153C291.155 10.696 291.385 10.5312 291.553 10.321C291.72 10.108 291.804 9.85937 291.804 9.57528C291.804 9.31676 291.73 9.10511 291.582 8.94034C291.438 8.77557 291.24 8.6392 290.99 8.53125C290.743 8.4233 290.463 8.32812 290.151 8.24574L289.119 7.96449C288.42 7.77415 287.866 7.49432 287.457 7.125C287.051 6.75568 286.848 6.26705 286.848 5.65909C286.848 5.15625 286.984 4.71733 287.257 4.34233C287.53 3.96733 287.899 3.67614 288.365 3.46875C288.831 3.25852 289.357 3.15341 289.942 3.15341C290.533 3.15341 291.054 3.2571 291.506 3.46449C291.96 3.67188 292.318 3.95739 292.58 4.32102C292.841 4.68182 292.977 5.09659 292.989 5.56534H291.719ZM294.562 12V11.0455L297.515 7.9858C297.831 7.65341 298.091 7.36222 298.295 7.11222C298.502 6.85937 298.657 6.61932 298.76 6.39205C298.862 6.16477 298.913 5.9233 298.913 5.66761C298.913 5.37784 298.845 5.12784 298.708 4.91761C298.572 4.70455 298.386 4.54119 298.15 4.42756C297.914 4.31108 297.649 4.25284 297.353 4.25284C297.041 4.25284 296.768 4.31676 296.535 4.4446C296.302 4.57244 296.123 4.75284 295.998 4.9858C295.873 5.21875 295.811 5.49148 295.811 5.80398H294.554C294.554 5.27273 294.676 4.80824 294.92 4.41051C295.164 4.01278 295.5 3.70455 295.926 3.4858C296.352 3.2642 296.836 3.15341 297.379 3.15341C297.927 3.15341 298.41 3.26278 298.828 3.48153C299.248 3.69744 299.576 3.9929 299.812 4.3679C300.048 4.74006 300.166 5.16051 300.166 5.62926C300.166 5.95312 300.105 6.26989 299.983 6.57955C299.863 6.8892 299.654 7.23437 299.356 7.61506C299.058 7.9929 298.643 8.4517 298.112 8.99148L296.377 10.8068V10.8707H300.306V12H294.562ZM304.96 12.1449C304.287 12.142 303.711 11.9645 303.234 11.6122C302.757 11.2599 302.392 10.7472 302.139 10.0739C301.886 9.40057 301.76 8.58949 301.76 7.64062C301.76 6.6946 301.886 5.88636 302.139 5.21591C302.395 4.54545 302.761 4.03409 303.238 3.68182C303.718 3.32955 304.292 3.15341 304.96 3.15341C305.627 3.15341 306.2 3.33097 306.677 3.68608C307.154 4.03835 307.52 4.54972 307.772 5.22017C308.028 5.88778 308.156 6.6946 308.156 7.64062C308.156 8.59233 308.029 9.40483 307.777 10.0781C307.524 10.7486 307.159 11.2614 306.681 11.6165C306.204 11.9688 305.63 12.1449 304.96 12.1449ZM304.96 11.0071C305.551 11.0071 306.012 10.7188 306.345 10.142C306.68 9.56534 306.848 8.73153 306.848 7.64062C306.848 6.91619 306.771 6.30398 306.618 5.80398C306.467 5.30114 306.25 4.92045 305.966 4.66193C305.684 4.40057 305.349 4.26989 304.96 4.26989C304.372 4.26989 303.91 4.55966 303.575 5.1392C303.24 5.71875 303.071 6.55256 303.068 7.64062C303.068 8.3679 303.143 8.98295 303.294 9.4858C303.447 9.9858 303.664 10.3651 303.946 10.6236C304.227 10.8793 304.565 11.0071 304.96 11.0071ZM312.57 3.15341C312.959 3.15625 313.342 3.22727 313.72 3.36648C314.098 3.50568 314.439 3.73295 314.743 4.0483C315.05 4.36364 315.294 4.78977 315.476 5.3267C315.661 5.8608 315.754 6.52557 315.757 7.32102C315.757 8.08523 315.68 8.76562 315.527 9.36222C315.374 9.95597 315.153 10.4574 314.866 10.8665C314.582 11.2756 314.237 11.5866 313.831 11.7997C313.425 12.0128 312.967 12.1193 312.459 12.1193C311.939 12.1193 311.477 12.017 311.074 11.8125C310.67 11.608 310.342 11.3253 310.089 10.9645C309.837 10.6009 309.679 10.1832 309.616 9.71165H310.916C311.001 10.0866 311.175 10.3906 311.436 10.6236C311.7 10.8537 312.041 10.9688 312.459 10.9688C313.098 10.9688 313.597 10.6903 313.955 10.1335C314.313 9.57386 314.493 8.79261 314.496 7.78977H314.428C314.28 8.03409 314.095 8.24432 313.874 8.42045C313.655 8.59659 313.409 8.73295 313.136 8.82955C312.864 8.92614 312.572 8.97443 312.263 8.97443C311.76 8.97443 311.303 8.85085 310.891 8.60369C310.479 8.35653 310.151 8.01705 309.906 7.58523C309.662 7.15341 309.54 6.66051 309.54 6.10653C309.54 5.5554 309.665 5.0554 309.915 4.60653C310.168 4.15767 310.52 3.80256 310.972 3.54119C311.426 3.27699 311.959 3.14773 312.57 3.15341ZM312.574 4.26136C312.241 4.26136 311.942 4.34375 311.675 4.50852C311.411 4.67045 311.202 4.89062 311.048 5.16903C310.895 5.4446 310.818 5.75142 310.818 6.08949C310.818 6.42756 310.892 6.73437 311.04 7.00994C311.19 7.28267 311.395 7.5 311.653 7.66193C311.915 7.82102 312.213 7.90057 312.548 7.90057C312.798 7.90057 313.031 7.85227 313.247 7.75568C313.463 7.65909 313.652 7.52557 313.814 7.35511C313.976 7.18182 314.102 6.9858 314.193 6.76705C314.284 6.5483 314.33 6.31818 314.33 6.0767C314.33 5.75568 314.253 5.45739 314.099 5.18182C313.949 4.90625 313.741 4.68466 313.477 4.51705C313.213 4.34659 312.912 4.26136 312.574 4.26136ZM318.655 10.8068L318.591 11.2713C318.548 11.6122 318.476 11.9673 318.374 12.3366C318.274 12.7088 318.17 13.054 318.062 13.3722C317.957 13.6903 317.871 13.9432 317.803 14.1307H316.899C316.936 13.9545 316.987 13.7159 317.053 13.4148C317.118 13.1165 317.182 12.7827 317.244 12.4134C317.307 12.044 317.354 11.6676 317.385 11.2841L317.428 10.8068H318.655ZM323.168 12.1193C322.778 12.1136 322.395 12.0426 322.017 11.9062C321.642 11.7699 321.301 11.5426 320.994 11.2244C320.688 10.9062 320.442 10.4787 320.257 9.94176C320.075 9.40483 319.984 8.73437 319.984 7.9304C319.984 7.16903 320.06 6.4929 320.21 5.90199C320.364 5.31108 320.584 4.8125 320.871 4.40625C321.158 3.99716 321.504 3.68608 321.911 3.47301C322.317 3.25994 322.773 3.15341 323.278 3.15341C323.798 3.15341 324.26 3.25568 324.663 3.46023C325.067 3.66477 325.393 3.94744 325.643 4.30824C325.896 4.66903 326.057 5.07955 326.125 5.53977H324.825C324.737 5.17614 324.563 4.87926 324.301 4.64915C324.04 4.41903 323.699 4.30398 323.278 4.30398C322.639 4.30398 322.141 4.58239 321.783 5.1392C321.428 5.69602 321.249 6.47017 321.246 7.46165H321.31C321.46 7.21449 321.645 7.00426 321.864 6.83097C322.085 6.65483 322.332 6.51989 322.605 6.42614C322.881 6.32955 323.17 6.28125 323.474 6.28125C323.98 6.28125 324.438 6.40483 324.847 6.65199C325.259 6.89631 325.587 7.23437 325.831 7.66619C326.075 8.09801 326.197 8.59233 326.197 9.14915C326.197 9.70597 326.071 10.2102 325.818 10.6619C325.568 11.1136 325.216 11.4716 324.761 11.7358C324.307 11.9972 323.776 12.125 323.168 12.1193ZM323.163 11.0114C323.499 11.0114 323.798 10.929 324.062 10.7642C324.327 10.5994 324.536 10.3778 324.689 10.0994C324.842 9.82102 324.919 9.50994 324.919 9.16619C324.919 8.83097 324.844 8.52557 324.693 8.25C324.545 7.97443 324.341 7.75568 324.08 7.59375C323.821 7.43182 323.526 7.35085 323.193 7.35085C322.94 7.35085 322.706 7.39915 322.49 7.49574C322.277 7.59233 322.089 7.72585 321.928 7.89631C321.766 8.06676 321.638 8.26278 321.544 8.48438C321.453 8.70312 321.408 8.93466 321.408 9.17898C321.408 9.50568 321.483 9.80824 321.634 10.0866C321.787 10.3651 321.996 10.5895 322.26 10.7599C322.527 10.9276 322.828 11.0114 323.163 11.0114ZM327.566 10.2955V9.23011L331.338 3.27273H332.177V4.84091H331.645L328.947 9.1108V9.17898H334.116V10.2955H327.566ZM331.704 12V9.97159L331.713 9.4858V3.27273H332.961V12H331.704ZM335.895 12L339.705 4.46591V4.40199H335.299V3.27273H341.069V4.44034L337.272 12H335.895ZM341.907 12.081C341.674 12.081 341.474 11.9986 341.306 11.8338C341.138 11.6662 341.055 11.4645 341.055 11.2287C341.055 10.9957 341.138 10.7969 341.306 10.6321C341.474 10.4645 341.674 10.3807 341.907 10.3807C342.14 10.3807 342.34 10.4645 342.508 10.6321C342.675 10.7969 342.759 10.9957 342.759 11.2287C342.759 11.3849 342.719 11.5284 342.64 11.6591C342.563 11.7869 342.461 11.8892 342.333 11.9659C342.205 12.0426 342.063 12.081 341.907 12.081ZM347.189 12.1193C346.655 12.1193 346.175 12.017 345.749 11.8125C345.325 11.6051 344.987 11.321 344.734 10.9602C344.482 10.5994 344.347 10.1875 344.33 9.72443H345.608C345.639 10.0994 345.805 10.4077 346.107 10.6491C346.408 10.8906 346.768 11.0114 347.189 11.0114C347.524 11.0114 347.821 10.9347 348.08 10.7812C348.341 10.625 348.545 10.4105 348.693 10.1378C348.844 9.86506 348.919 9.55398 348.919 9.20455C348.919 8.84943 348.842 8.53267 348.689 8.25426C348.536 7.97585 348.324 7.7571 348.054 7.59801C347.787 7.43892 347.48 7.35795 347.134 7.35511C346.869 7.35511 346.604 7.40057 346.337 7.49148C346.07 7.58239 345.854 7.7017 345.689 7.84943L344.483 7.67045L344.973 3.27273H349.771V4.40199H346.068L345.791 6.84375H345.842C346.013 6.67898 346.239 6.54119 346.52 6.4304C346.804 6.3196 347.108 6.2642 347.432 6.2642C347.963 6.2642 348.436 6.39062 348.851 6.64347C349.268 6.89631 349.597 7.24148 349.835 7.67898C350.077 8.11364 350.196 8.61364 350.193 9.17898C350.196 9.74432 350.068 10.2486 349.81 10.6918C349.554 11.1349 349.199 11.4844 348.744 11.7401C348.293 11.9929 347.774 12.1193 347.189 12.1193ZM354.788 12.1449C354.115 12.142 353.539 11.9645 353.062 11.6122C352.585 11.2599 352.22 10.7472 351.967 10.0739C351.714 9.40057 351.588 8.58949 351.588 7.64062C351.588 6.6946 351.714 5.88636 351.967 5.21591C352.223 4.54545 352.589 4.03409 353.066 3.68182C353.547 3.32955 354.12 3.15341 354.788 3.15341C355.456 3.15341 356.028 3.33097 356.505 3.68608C356.983 4.03835 357.348 4.54972 357.6 5.22017C357.856 5.88778 357.984 6.6946 357.984 7.64062C357.984 8.59233 357.858 9.40483 357.605 10.0781C357.352 10.7486 356.987 11.2614 356.51 11.6165C356.032 11.9688 355.458 12.1449 354.788 12.1449ZM354.788 11.0071C355.379 11.0071 355.841 10.7188 356.173 10.142C356.508 9.56534 356.676 8.73153 356.676 7.64062C356.676 6.91619 356.599 6.30398 356.446 5.80398C356.295 5.30114 356.078 4.92045 355.794 4.66193C355.512 4.40057 355.177 4.26989 354.788 4.26989C354.2 4.26989 353.738 4.55966 353.403 5.1392C353.068 5.71875 352.899 6.55256 352.896 7.64062C352.896 8.3679 352.971 8.98295 353.122 9.4858C353.275 9.9858 353.493 10.3651 353.774 10.6236C354.055 10.8793 354.393 11.0071 354.788 11.0071Z" fill="white"/>
<path d="M42.5327 245.091V234.182H43.2315V245.091H42.5327ZM44.7188 237.565C44.6733 237.162 44.4858 236.849 44.1562 236.628C43.8267 236.403 43.4119 236.291 42.9119 236.291C42.554 236.291 42.2443 236.348 41.983 236.462C41.7216 236.572 41.5185 236.726 41.3736 236.922C41.2315 237.115 41.1605 237.335 41.1605 237.582C41.1605 237.79 41.2088 237.969 41.3054 238.119C41.4048 238.27 41.5341 238.396 41.6932 238.499C41.8551 238.598 42.0284 238.682 42.2131 238.75C42.3977 238.815 42.5753 238.869 42.7457 238.912L43.598 239.134C43.8764 239.202 44.1619 239.294 44.4545 239.411C44.7472 239.527 45.0185 239.68 45.2685 239.871C45.5185 240.061 45.7202 240.297 45.8736 240.578C46.0298 240.859 46.108 241.196 46.108 241.588C46.108 242.082 45.9801 242.521 45.7244 242.905C45.4716 243.288 45.1037 243.591 44.6207 243.812C44.1406 244.034 43.5597 244.145 42.8778 244.145C42.2244 244.145 41.6591 244.041 41.1818 243.834C40.7045 243.626 40.331 243.332 40.0611 242.952C39.7912 242.568 39.642 242.114 39.6136 241.588H40.9347C40.9602 241.903 41.0625 242.166 41.2415 242.376C41.4233 242.584 41.6548 242.739 41.9361 242.841C42.2202 242.94 42.5312 242.99 42.8693 242.99C43.2415 242.99 43.5724 242.932 43.8622 242.815C44.1548 242.696 44.3849 242.531 44.5526 242.321C44.7202 242.108 44.804 241.859 44.804 241.575C44.804 241.317 44.7301 241.105 44.5824 240.94C44.4375 240.776 44.2401 240.639 43.9901 240.531C43.7429 240.423 43.4631 240.328 43.1506 240.246L42.1193 239.964C41.4205 239.774 40.8665 239.494 40.4574 239.125C40.0511 238.756 39.848 238.267 39.848 237.659C39.848 237.156 39.9844 236.717 40.2571 236.342C40.5298 235.967 40.8991 235.676 41.3651 235.469C41.831 235.259 42.3565 235.153 42.9418 235.153C43.5327 235.153 44.054 235.257 44.5057 235.464C44.9602 235.672 45.3182 235.957 45.5795 236.321C45.8409 236.682 45.9773 237.097 45.9886 237.565H44.7188ZM50.8732 235.273V244H49.5522V236.594H49.5011L47.413 237.957V236.696L49.5906 235.273H50.8732ZM56.2809 244.119C55.8917 244.114 55.5082 244.043 55.1303 243.906C54.7553 243.77 54.4144 243.543 54.1076 243.224C53.8008 242.906 53.555 242.479 53.3704 241.942C53.1886 241.405 53.0977 240.734 53.0977 239.93C53.0977 239.169 53.1729 238.493 53.3235 237.902C53.4769 237.311 53.6971 236.812 53.984 236.406C54.271 235.997 54.6175 235.686 55.0238 235.473C55.43 235.26 55.886 235.153 56.3917 235.153C56.9116 235.153 57.3732 235.256 57.7766 235.46C58.18 235.665 58.5067 235.947 58.7567 236.308C59.0096 236.669 59.1701 237.08 59.2383 237.54H57.9386C57.8505 237.176 57.6758 236.879 57.4144 236.649C57.1531 236.419 56.8121 236.304 56.3917 236.304C55.7525 236.304 55.2539 236.582 54.896 237.139C54.5408 237.696 54.3619 238.47 54.359 239.462H54.4229C54.5735 239.214 54.7582 239.004 54.9769 238.831C55.1985 238.655 55.4457 238.52 55.7184 238.426C55.994 238.33 56.2837 238.281 56.5877 238.281C57.0934 238.281 57.5508 238.405 57.9599 238.652C58.3718 238.896 58.6999 239.234 58.9442 239.666C59.1886 240.098 59.3107 240.592 59.3107 241.149C59.3107 241.706 59.1843 242.21 58.9315 242.662C58.6815 243.114 58.3292 243.472 57.8746 243.736C57.4201 243.997 56.8888 244.125 56.2809 244.119ZM56.2766 243.011C56.6119 243.011 56.9116 242.929 57.1758 242.764C57.44 242.599 57.6488 242.378 57.8022 242.099C57.9556 241.821 58.0323 241.51 58.0323 241.166C58.0323 240.831 57.957 240.526 57.8065 240.25C57.6587 239.974 57.4542 239.756 57.1928 239.594C56.9343 239.432 56.6388 239.351 56.3065 239.351C56.0536 239.351 55.8192 239.399 55.6033 239.496C55.3903 239.592 55.2028 239.726 55.0408 239.896C54.8789 240.067 54.7511 240.263 54.6573 240.484C54.5664 240.703 54.521 240.935 54.521 241.179C54.521 241.506 54.5962 241.808 54.7468 242.087C54.9002 242.365 55.109 242.589 55.3732 242.76C55.6403 242.928 55.9414 243.011 56.2766 243.011ZM63.8118 244.119C63.201 244.119 62.6612 244.014 62.1925 243.804C61.7266 243.594 61.3615 243.304 61.0973 242.935C60.8331 242.565 60.7024 242.145 60.7053 241.673C60.7024 241.304 60.7777 240.964 60.9311 240.655C61.0874 240.342 61.299 240.082 61.5661 239.875C61.8331 239.665 62.1314 239.531 62.4609 239.474V239.423C62.0263 239.318 61.6783 239.085 61.4169 238.724C61.1555 238.364 61.0263 237.949 61.0291 237.48C61.0263 237.034 61.1442 236.636 61.3828 236.287C61.6243 235.935 61.9553 235.658 62.3757 235.456C62.7962 235.254 63.2749 235.153 63.8118 235.153C64.343 235.153 64.8175 235.256 65.2351 235.46C65.6555 235.662 65.9865 235.939 66.228 236.291C66.4695 236.641 66.5916 237.037 66.5945 237.48C66.5916 237.949 66.4581 238.364 66.1939 238.724C65.9297 239.085 65.5859 239.318 65.1626 239.423V239.474C65.4893 239.531 65.7834 239.665 66.0447 239.875C66.3089 240.082 66.5192 240.342 66.6754 240.655C66.8345 240.964 66.9155 241.304 66.9183 241.673C66.9155 242.145 66.782 242.565 66.5178 242.935C66.2536 243.304 65.8871 243.594 65.4183 243.804C64.9524 244.014 64.4169 244.119 63.8118 244.119ZM63.8118 243.041C64.1726 243.041 64.4851 242.982 64.7493 242.862C65.0135 242.74 65.218 242.571 65.3629 242.355C65.5078 242.136 65.5817 241.881 65.5845 241.588C65.5817 241.284 65.5021 241.016 65.3459 240.783C65.1925 240.55 64.9837 240.366 64.7195 240.233C64.4553 240.099 64.1527 240.033 63.8118 240.033C63.468 240.033 63.1626 240.099 62.8956 240.233C62.6286 240.366 62.4183 240.55 62.2649 240.783C62.1115 241.016 62.0362 241.284 62.0391 241.588C62.0362 241.881 62.1058 242.136 62.2479 242.355C62.3928 242.571 62.5987 242.74 62.8658 242.862C63.1328 242.982 63.4482 243.041 63.8118 243.041ZM63.8118 238.98C64.1016 238.98 64.3587 238.922 64.5831 238.805C64.8075 238.689 64.9837 238.527 65.1115 238.32C65.2422 238.112 65.3089 237.869 65.3118 237.591C65.3089 237.318 65.2436 237.08 65.1158 236.875C64.9908 236.67 64.8161 236.513 64.5916 236.402C64.3672 236.288 64.1072 236.232 63.8118 236.232C63.5107 236.232 63.2464 236.288 63.0192 236.402C62.7947 236.513 62.62 236.67 62.495 236.875C62.37 237.08 62.3089 237.318 62.3118 237.591C62.3089 237.869 62.3714 238.112 62.4993 238.32C62.6271 238.527 62.8033 238.689 63.0277 238.805C63.255 238.922 63.5163 238.98 63.8118 238.98ZM69.8619 242.807L69.7979 243.271C69.7553 243.612 69.6829 243.967 69.5806 244.337C69.4812 244.709 69.3775 245.054 69.2695 245.372C69.1644 245.69 69.0778 245.943 69.0096 246.131H68.1062C68.1431 245.955 68.1942 245.716 68.2596 245.415C68.3249 245.116 68.3888 244.783 68.4513 244.413C68.5138 244.044 68.5607 243.668 68.592 243.284L68.6346 242.807H69.8619ZM71.6442 244V243.045L74.5973 239.986C74.9126 239.653 75.1726 239.362 75.3771 239.112C75.5845 238.859 75.7393 238.619 75.8416 238.392C75.9439 238.165 75.995 237.923 75.995 237.668C75.995 237.378 75.9268 237.128 75.7905 236.918C75.6541 236.705 75.468 236.541 75.2322 236.428C74.9964 236.311 74.7308 236.253 74.4354 236.253C74.1229 236.253 73.8501 236.317 73.6172 236.445C73.3842 236.572 73.2053 236.753 73.0803 236.986C72.9553 237.219 72.8928 237.491 72.8928 237.804H71.6357C71.6357 237.273 71.7578 236.808 72.0021 236.411C72.2464 236.013 72.5817 235.705 73.0078 235.486C73.4339 235.264 73.9183 235.153 74.4609 235.153C75.0092 235.153 75.4922 235.263 75.9098 235.482C76.3303 235.697 76.6584 235.993 76.8942 236.368C77.13 236.74 77.2479 237.161 77.2479 237.629C77.2479 237.953 77.1868 238.27 77.0646 238.58C76.9453 238.889 76.7365 239.234 76.4382 239.615C76.1399 239.993 75.7251 240.452 75.1939 240.991L73.4595 242.807V242.871H77.3885V244H71.6442ZM78.6328 242.295V241.23L82.4041 235.273H83.2436V236.841H82.7109L80.0135 241.111V241.179H85.1825V242.295H78.6328ZM82.7706 244V241.972L82.7791 241.486V235.273H84.0277V244H82.7706ZM89.5696 235.153C89.9588 235.156 90.3423 235.227 90.7202 235.366C91.098 235.506 91.4389 235.733 91.7429 236.048C92.0497 236.364 92.294 236.79 92.4759 237.327C92.6605 237.861 92.7543 238.526 92.7571 239.321C92.7571 240.085 92.6804 240.766 92.527 241.362C92.3736 241.956 92.1534 242.457 91.8665 242.866C91.5824 243.276 91.2372 243.587 90.831 243.8C90.4247 244.013 89.9673 244.119 89.4588 244.119C88.9389 244.119 88.4773 244.017 88.0739 243.812C87.6705 243.608 87.3423 243.325 87.0895 242.964C86.8366 242.601 86.679 242.183 86.6165 241.712H87.9162C88.0014 242.087 88.1747 242.391 88.4361 242.624C88.7003 242.854 89.0412 242.969 89.4588 242.969C90.098 242.969 90.5966 242.69 90.9545 242.134C91.3125 241.574 91.4929 240.793 91.4957 239.79H91.4276C91.2798 240.034 91.0952 240.244 90.8736 240.42C90.6548 240.597 90.4091 240.733 90.1364 240.83C89.8636 240.926 89.5724 240.974 89.2628 240.974C88.7599 240.974 88.3026 240.851 87.8906 240.604C87.4787 240.357 87.1506 240.017 86.9062 239.585C86.6619 239.153 86.5398 238.661 86.5398 238.107C86.5398 237.555 86.6648 237.055 86.9148 236.607C87.1676 236.158 87.5199 235.803 87.9716 235.541C88.4261 235.277 88.9588 235.148 89.5696 235.153ZM89.5739 236.261C89.2415 236.261 88.9418 236.344 88.6747 236.509C88.4105 236.67 88.2017 236.891 88.0483 237.169C87.8949 237.445 87.8182 237.751 87.8182 238.089C87.8182 238.428 87.892 238.734 88.0398 239.01C88.1903 239.283 88.3949 239.5 88.6534 239.662C88.9148 239.821 89.2131 239.901 89.5483 239.901C89.7983 239.901 90.0313 239.852 90.2472 239.756C90.4631 239.659 90.652 239.526 90.8139 239.355C90.9759 239.182 91.1023 238.986 91.1932 238.767C91.2841 238.548 91.3295 238.318 91.3295 238.077C91.3295 237.756 91.2528 237.457 91.0994 237.182C90.9489 236.906 90.7415 236.685 90.4773 236.517C90.2131 236.347 89.9119 236.261 89.5739 236.261ZM94.8366 244.081C94.6037 244.081 94.4034 243.999 94.2358 243.834C94.0682 243.666 93.9844 243.464 93.9844 243.229C93.9844 242.996 94.0682 242.797 94.2358 242.632C94.4034 242.464 94.6037 242.381 94.8366 242.381C95.0696 242.381 95.2699 242.464 95.4375 242.632C95.6051 242.797 95.6889 242.996 95.6889 243.229C95.6889 243.385 95.6491 243.528 95.5696 243.659C95.4929 243.787 95.3906 243.889 95.2628 243.966C95.1349 244.043 94.9929 244.081 94.8366 244.081ZM100.109 244.119C99.7198 244.114 99.3363 244.043 98.9585 243.906C98.5835 243.77 98.2425 243.543 97.9357 243.224C97.6289 242.906 97.3832 242.479 97.1985 241.942C97.0167 241.405 96.9258 240.734 96.9258 239.93C96.9258 239.169 97.0011 238.493 97.1516 237.902C97.305 237.311 97.5252 236.812 97.8121 236.406C98.0991 235.997 98.4457 235.686 98.8519 235.473C99.2582 235.26 99.7141 235.153 100.22 235.153C100.74 235.153 101.201 235.256 101.605 235.46C102.008 235.665 102.335 235.947 102.585 236.308C102.838 236.669 102.998 237.08 103.066 237.54H101.767C101.679 237.176 101.504 236.879 101.243 236.649C100.981 236.419 100.64 236.304 100.22 236.304C99.5806 236.304 99.082 236.582 98.7241 237.139C98.369 237.696 98.19 238.47 98.1871 239.462H98.2511C98.4016 239.214 98.5863 239.004 98.805 238.831C99.0266 238.655 99.2738 238.52 99.5465 238.426C99.8221 238.33 100.112 238.281 100.416 238.281C100.922 238.281 101.379 238.405 101.788 238.652C102.2 238.896 102.528 239.234 102.772 239.666C103.017 240.098 103.139 240.592 103.139 241.149C103.139 241.706 103.012 242.21 102.76 242.662C102.51 243.114 102.157 243.472 101.703 243.736C101.248 243.997 100.717 244.125 100.109 244.119ZM100.105 243.011C100.44 243.011 100.74 242.929 101.004 242.764C101.268 242.599 101.477 242.378 101.63 242.099C101.784 241.821 101.86 241.51 101.86 241.166C101.86 240.831 101.785 240.526 101.635 240.25C101.487 239.974 101.282 239.756 101.021 239.594C100.762 239.432 100.467 239.351 100.135 239.351C99.8817 239.351 99.6474 239.399 99.4315 239.496C99.2184 239.592 99.0309 239.726 98.869 239.896C98.707 240.067 98.5792 240.263 98.4854 240.484C98.3945 240.703 98.3491 240.935 98.3491 241.179C98.3491 241.506 98.4244 241.808 98.5749 242.087C98.7283 242.365 98.9371 242.589 99.2013 242.76C99.4684 242.928 99.7695 243.011 100.105 243.011ZM104.985 244L108.795 236.466V236.402H104.388V235.273H110.158V236.44L106.362 244H104.985Z" fill="white"/>
<path d="M42.94 271.796C44.032 273.32 46.144 275.192 48.004 276.308C48.172 276.044 48.388 275.744 48.616 275.54C46.732 274.532 44.596 272.684 43.336 270.896H42.436C41.512 272.48 39.484 274.46 37.408 275.672C37.612 275.852 37.864 276.164 37.984 276.38C40.012 275.132 41.968 273.272 42.94 271.796ZM40.36 274.712V275.564H45.616V274.712H40.36ZM38.812 277.076V277.928H46.108V277.076H38.812ZM45.928 277.076V277.184C45.472 278.24 44.512 280.28 43.732 281.756L44.68 282.008C45.424 280.52 46.36 278.576 46.924 277.244L46.216 277.016L46.06 277.076H45.928ZM51.112 271.736V281.828H52.036V272.648H58.024V281.78H58.972V271.736H51.112ZM51.724 275.9V276.788H58.42V275.9H51.724ZM51.712 280.148V281.048H58.444V280.148H51.712Z" fill="white"/>
<path d="M99.704 274.384V275.212H103.304V274.384H99.704ZM99.704 277.048V277.876H103.412V277.048H99.704ZM99.104 272.116V280.972H99.992V272.116H99.104ZM98.372 269.908C97.976 271.552 97.316 273.184 96.476 274.228C96.68 274.384 97.028 274.732 97.16 274.9C98.048 273.724 98.792 271.924 99.272 270.112L98.372 269.908ZM98.06 271.852L97.724 272.692H103.568V271.852H98.06ZM93.356 270.856V271.684H95.576V277.888H93.356V278.704H96.44V270.856H93.356ZM93.38 274.312V275.128H95.996V274.312H93.38ZM92.9 270.856V279.64H93.764V270.856H92.9ZM106.112 270.736V280.828H107.036V271.648H113.024V280.78H113.972V270.736H106.112ZM106.724 274.9V275.788H113.42V274.9H106.724ZM106.712 279.148V280.048H113.444V279.148H106.712Z" fill="white"/>
<rect x="146" y="264" width="50" height="24" rx="8" fill="white"/>
<path d="M162.448 274.46V275.312H168.424V274.46H162.448ZM165.292 274.844V280.268H166.18V274.844H165.292ZM161.968 271.736V274.52C161.968 276.02 161.812 277.916 160.504 279.344C160.72 279.464 161.044 279.764 161.152 279.968C162.628 278.384 162.856 276.14 162.856 274.544V272.156C163.024 272.12 163.096 272.072 163.108 271.988L161.968 271.736ZM166.996 270.968C165.916 271.364 163.984 271.724 162.304 271.952C162.412 272.144 162.544 272.468 162.592 272.672C164.344 272.468 166.372 272.12 167.764 271.652L166.996 270.968ZM160.132 275.66H157.576V276.5H159.256V279.908H160.132V275.66ZM160.132 279.512H159.316C158.704 280.028 157.996 280.556 157.42 280.94L157.9 281.864C158.548 281.336 159.16 280.82 159.736 280.304C160.504 281.252 161.584 281.672 163.144 281.732C164.476 281.78 166.96 281.756 168.28 281.708C168.316 281.432 168.472 281 168.568 280.784C167.152 280.88 164.452 280.916 163.144 280.868C161.764 280.808 160.696 280.4 160.132 279.512ZM157.708 271.76C158.488 272.288 159.388 273.104 159.772 273.68L160.48 273.092C160.06 272.504 159.16 271.724 158.368 271.22L157.708 271.76ZM170.476 272.096V272.996H179.548V272.096H170.476ZM171.244 276.02V276.92H178.6V276.02H171.244ZM169.78 280.184V281.096H180.196V280.184H169.78ZM187.492 275.936L186.616 276.128C187.444 279.176 189.04 281.156 191.956 281.984C192.1 281.732 192.364 281.348 192.58 281.144C189.772 280.46 188.188 278.624 187.492 275.936ZM182.08 275.588V276.5H191.956V275.588H182.08ZM181.708 271.856V272.768H192.268V271.856H181.708ZM186.436 272.108V274.904C186.436 277.1 185.968 279.68 181.48 281.204C181.672 281.384 181.936 281.768 182.032 281.996C186.844 280.328 187.384 277.436 187.384 274.904V272.108H186.436Z" fill="#12D18E"/>
<path d="M229.448 273.46V274.312H235.424V273.46H229.448ZM232.292 273.844V279.268H233.18V273.844H232.292ZM228.968 270.736V273.52C228.968 275.02 228.812 276.916 227.504 278.344C227.72 278.464 228.044 278.764 228.152 278.968C229.628 277.384 229.856 275.14 229.856 273.544V271.156C230.024 271.12 230.096 271.072 230.108 270.988L228.968 270.736ZM233.996 269.968C232.916 270.364 230.984 270.724 229.304 270.952C229.412 271.144 229.544 271.468 229.592 271.672C231.344 271.468 233.372 271.12 234.764 270.652L233.996 269.968ZM227.132 274.66H224.576V275.5H226.256V278.908H227.132V274.66ZM227.132 278.512H226.316C225.704 279.028 224.996 279.556 224.42 279.94L224.9 280.864C225.548 280.336 226.16 279.82 226.736 279.304C227.504 280.252 228.584 280.672 230.144 280.732C231.476 280.78 233.96 280.756 235.28 280.708C235.316 280.432 235.472 280 235.568 279.784C234.152 279.88 231.452 279.916 230.144 279.868C228.764 279.808 227.696 279.4 227.132 278.512ZM224.708 270.76C225.488 271.288 226.388 272.104 226.772 272.68L227.48 272.092C227.06 271.504 226.16 270.724 225.368 270.22L224.708 270.76ZM236.588 274.708L236.732 275.608L247.448 273.904L247.292 272.98L236.588 274.708ZM240.056 270.136V278.716C240.056 280.168 240.512 280.54 242 280.54C242.336 280.54 244.796 280.54 245.144 280.54C246.632 280.54 246.932 279.856 247.076 277.864C246.824 277.792 246.404 277.612 246.164 277.432C246.044 279.22 245.924 279.652 245.12 279.652C244.604 279.652 242.468 279.652 242.036 279.652C241.172 279.652 241.016 279.472 241.016 278.728V270.136H240.056ZM250.112 270.736V280.828H251.036V271.648H257.024V280.78H257.972V270.736H250.112ZM250.724 274.9V275.788H257.42V274.9H250.724ZM250.712 279.148V280.048H257.444V279.148H250.712Z" fill="white"/>
<path d="M300.448 273.46V274.312H306.424V273.46H300.448ZM303.292 273.844V279.268H304.18V273.844H303.292ZM299.968 270.736V273.52C299.968 275.02 299.812 276.916 298.504 278.344C298.72 278.464 299.044 278.764 299.152 278.968C300.628 277.384 300.856 275.14 300.856 273.544V271.156C301.024 271.12 301.096 271.072 301.108 270.988L299.968 270.736ZM304.996 269.968C303.916 270.364 301.984 270.724 300.304 270.952C300.412 271.144 300.544 271.468 300.592 271.672C302.344 271.468 304.372 271.12 305.764 270.652L304.996 269.968ZM298.132 274.66H295.576V275.5H297.256V278.908H298.132V274.66ZM298.132 278.512H297.316C296.704 279.028 295.996 279.556 295.42 279.94L295.9 280.864C296.548 280.336 297.16 279.82 297.736 279.304C298.504 280.252 299.584 280.672 301.144 280.732C302.476 280.78 304.96 280.756 306.28 280.708C306.316 280.432 306.472 280 306.568 279.784C305.152 279.88 302.452 279.916 301.144 279.868C299.764 279.808 298.696 279.4 298.132 278.512ZM295.708 270.76C296.488 271.288 297.388 272.104 297.772 272.68L298.48 272.092C298.06 271.504 297.16 270.724 296.368 270.22L295.708 270.76ZM308.476 271.096V271.996H317.548V271.096H308.476ZM309.244 275.02V275.92H316.6V275.02H309.244ZM307.78 279.184V280.096H318.196V279.184H307.78ZM319.66 274.408V275.332H330.424V274.408H319.66ZM324.532 269.932V280.96H325.492V269.932H324.532ZM333.112 270.736V280.828H334.036V271.648H340.024V280.78H340.972V270.736H333.112ZM333.724 274.9V275.788H340.42V274.9H333.724ZM333.712 279.148V280.048H340.444V279.148H333.712Z" fill="white"/>
<defs>
<linearGradient id="paint0_linear_375_1484" x1="187.5" y1="-52" x2="187.5" y2="304" gradientUnits="userSpaceOnUse">
<stop stop-color="white"/>
<stop offset="1" stop-color="white" stop-opacity="0"/>
</linearGradient>
</defs>
</svg>
