<svg width="88" height="88" viewBox="0 0 88 88" fill="none" xmlns="http://www.w3.org/2000/svg">
<g clip-path="url(#clip0_1_13278)">
<path d="M43.9995 87.9991C68.2998 87.9991 87.9991 68.2998 87.9991 43.9995C87.9991 19.6993 68.2998 0 43.9995 0C19.6993 0 0 19.6993 0 43.9995C0 68.2998 19.6993 87.9991 43.9995 87.9991Z" fill="#12D18E"/>
<path d="M21.2864 6.30888L41.4212 26.4437L48.636 26.4651L26.0068 3.83594C24.379 4.56645 22.8024 5.39294 21.2864 6.30888Z" fill="#EAEAEA"/>
<path d="M71.4733 21.2666H59.3732H28.8271H16.5275C14.6918 21.2666 13.2 22.7585 13.2 24.5942V61.9122C13.2 63.7479 14.6918 65.2398 16.5275 65.2398H71.4733C73.309 65.2398 74.8009 63.7479 74.8009 61.9122V24.5942C74.8009 22.7585 73.309 21.2666 71.4733 21.2666ZM52.6046 27.174H35.3962C34.2962 27.174 33.4093 26.6584 33.4093 25.5584C33.4093 24.4584 34.2962 23.9427 35.3962 23.9427H52.6046C53.6978 23.9427 54.5915 24.4584 54.5915 25.5584C54.5915 26.6584 53.7046 27.174 52.6046 27.174Z" fill="#F9F9F9"/>
<path d="M49.5418 38.5215C48.4418 38.5215 47.5549 39.0371 47.5549 40.1371C47.5549 41.2371 48.4418 41.7528 49.5418 41.7528H66.7502C67.8502 41.7528 68.7371 41.2371 68.7371 40.1371C68.7371 39.0371 67.8434 38.5215 66.7502 38.5215H49.5418Z" fill="#12D18E" fill-opacity="0.3"/>
<path d="M31.8247 34.5205C28.8684 34.5205 26.4758 36.913 26.4758 39.8693C26.4758 42.8256 28.8684 45.2182 31.8247 45.2182C34.781 45.2182 37.1735 42.8256 37.1735 39.8693C37.1735 36.9199 34.781 34.5205 31.8247 34.5205Z" fill="#12D18E"/>
<path d="M42.3917 55.0364V49.3782C42.3917 45.5763 36.1147 45.0469 36.1147 45.0469L31.9553 49.2063L26.9158 44.875C21.2576 46.2019 21.347 48.5876 21.347 48.5876V55.0433H42.3917V55.0364Z" fill="#12D18E"/>
<path d="M57.517 54.4866C58.5414 54.4866 59.3733 54.0328 59.3733 53.0084C59.3733 51.984 58.5414 51.5303 57.517 51.5303H49.3219C48.2975 51.5303 47.4656 51.984 47.4656 53.0084C47.4656 54.0328 48.2975 54.4866 49.3219 54.4866H57.517Z" fill="#12D18E" fill-opacity="0.3"/>
<path d="M66.9771 48.2024C68.0496 48.2024 68.9228 47.7074 68.9228 46.6349C68.9228 45.5624 68.0496 45.0674 66.9771 45.0674H49.4112C48.3387 45.0674 47.4656 45.5624 47.4656 46.6349C47.4656 47.7074 48.3387 48.2024 49.4112 48.2024H66.9771Z" fill="#12D18E" fill-opacity="0.3"/>
<path d="M41.4204 26.4437H48.6147L67.964 7.09345C66.4937 6.13651 64.9618 5.2653 63.3768 4.48633L41.4204 26.4437Z" fill="white"/>
</g>
<defs>
<clipPath id="clip0_1_13278">
<rect width="88" height="88" fill="white"/>
</clipPath>
</defs>
</svg>
