<svg width="24" height="24" viewBox="0 0 24 24" fill="none" xmlns="http://www.w3.org/2000/svg">
<path d="M4 7L7.5 6L9.5 3L11.5 2L14 3.5L16 6L20.5 8V11.5L18 14L18.5 18L17 20.5L12 19.5L6.5 20.5L4.5 18L5 14.5L2 10.5L4 7Z" fill="#12D18E"/>
<path fill-rule="evenodd" clip-rule="evenodd" d="M15.3599 4.21357C14.1843 0.595476 9.06568 0.595476 7.89009 4.21357C7.54445 5.27733 6.55315 5.99756 5.43464 5.99756C1.63035 5.99756 0.0486075 10.8657 3.12634 13.1018C4.03123 13.7592 4.40988 14.9246 4.06424 15.9883C2.88865 19.6064 7.02971 22.6151 10.1075 20.379C11.0123 19.7215 12.2377 19.7215 13.1425 20.379C16.2203 22.6151 20.3613 19.6064 19.1858 15.9883C18.8401 14.9246 19.2188 13.7592 20.1237 13.1018C23.2014 10.8657 21.6196 5.99756 17.8154 5.99756C16.6968 5.99756 15.7055 5.27733 15.3599 4.21357ZM9.16955 4.62929C9.94242 2.25065 13.3076 2.25065 14.0804 4.62929C14.6062 6.24736 16.114 7.34286 17.8154 7.34286C20.3164 7.34286 21.3563 10.5433 19.3329 12.0134C17.9565 13.0134 17.3806 14.786 17.9063 16.404C18.6792 18.7827 15.9567 20.7607 13.9333 19.2906C12.5569 18.2906 10.6931 18.2906 9.3167 19.2906C7.2933 20.7607 4.57084 18.7827 5.3437 16.404C5.86944 14.786 5.2935 13.0134 3.9171 12.0134C1.8937 10.5433 2.93359 7.34286 5.43464 7.34286C7.13597 7.34286 8.64381 6.24736 9.16955 4.62929Z" fill="#12D18E"/>
</svg>
