<svg width="375" height="416" viewBox="0 0 375 416" fill="none" xmlns="http://www.w3.org/2000/svg">
<rect width="375" height="416" fill="#12D18E"/>
<g opacity="0.6">
<path d="M124.5 0H171.5L147.5 27.4182L124.5 0Z" fill="white" fill-opacity="0.2"/>
<path d="M90 0H124.5L147.5 27.4182L148 135.2L90 67.1273V0Z" fill="url(#paint0_linear_1_12142)" fill-opacity="0.15"/>
<path d="M205.5 0H171L147.5 27.4182L148 135.2L205.5 67.1273V0Z" fill="url(#paint1_linear_1_12142)" fill-opacity="0.15"/>
<path d="M235 404.654L293.5 338.473L352 404.654L344 416H244L235 404.654Z" fill="white" fill-opacity="0.1"/>
<path d="M0 77.5273L129.5 228.8L0 379.127V77.5273Z" fill="white" fill-opacity="0.1"/>
<path d="M0 379.127L129.5 228.8V416H0V379.127Z" fill="url(#paint2_linear_1_12142)" fill-opacity="0.6"/>
<path d="M244.5 79.4182L311.5 0H375V223.127L244.5 79.4182Z" fill="white" fill-opacity="0.1"/>
<path d="M244.5 79.4185L375 222.986V301.6H244.5V79.4185Z" fill="url(#paint3_linear_1_12142)" fill-opacity="0.5"/>
</g>
<defs>
<linearGradient id="paint0_linear_1_12142" x1="119" y1="0" x2="119" y2="135.2" gradientUnits="userSpaceOnUse">
<stop stop-color="white"/>
<stop offset="1" stop-color="white" stop-opacity="0"/>
</linearGradient>
<linearGradient id="paint1_linear_1_12142" x1="176.5" y1="0" x2="176.5" y2="135.2" gradientUnits="userSpaceOnUse">
<stop stop-color="white"/>
<stop offset="1" stop-color="white" stop-opacity="0"/>
</linearGradient>
<linearGradient id="paint2_linear_1_12142" x1="64.75" y1="-19.8548" x2="64.75" y2="416" gradientUnits="userSpaceOnUse">
<stop stop-color="white"/>
<stop offset="1" stop-color="white" stop-opacity="0"/>
</linearGradient>
<linearGradient id="paint3_linear_1_12142" x1="309.75" y1="-134.254" x2="309.75" y2="301.6" gradientUnits="userSpaceOnUse">
<stop stop-color="white"/>
<stop offset="1" stop-color="white" stop-opacity="0"/>
</linearGradient>
</defs>
</svg>
