<svg width="24" height="24" viewBox="0 0 24 24" fill="none" xmlns="http://www.w3.org/2000/svg">
<path fill-rule="evenodd" clip-rule="evenodd" d="M6.75 17C7.71649 17 8.5 16.2165 8.5 15.25C8.5 14.2835 7.71649 13.5 6.75 13.5C5.78351 13.5 5 14.2835 5 15.25C5 16.2165 5.78351 17 6.75 17Z" fill="#9D9E9E"/>
<path fill-rule="evenodd" clip-rule="evenodd" d="M17.25 17C18.2165 17 19 16.2165 19 15.25C19 14.2835 18.2165 13.5 17.25 13.5C16.2835 13.5 15.5 14.2835 15.5 15.25C15.5 16.2165 16.2835 17 17.25 17Z" fill="#9D9E9E"/>
<path d="M3.5 18.5C2.67158 18.5 2 17.8285 2 17V12.3548C2 11.2181 2.64243 10.179 3.6593 9.6711L4.00027 9.50075L5.15525 4.54597C5.3663 3.64058 6.17335 3 7.103 3H16.9471C17.8837 3 18.6949 3.64999 18.899 4.56408L20.0016 9.50075L20.3417 9.6708C21.358 10.179 22 11.2177 22 12.354V17C22 17.8285 21.3285 18.5 20.5 18.5H19.5016V19C19.5016 20.1046 18.6053 21 17.5008 21C16.3962 21 15.5 20.1046 15.5 19V18.5H8.5V19.0002C8.5 20.1047 7.60465 21 6.50015 21C5.39565 21 4.50027 20.1047 4.50027 19.0002V18.5H3.5Z" stroke="#9D9E9E" stroke-width="1.5" stroke-linejoin="round"/>
<path d="M7 11H17L16.174 7.28305C16.0723 6.82555 15.6666 6.5 15.1979 6.5H8.80215C8.33345 6.5 7.92765 6.82555 7.826 7.28305L7 11Z" stroke="#9D9E9E" stroke-width="1.5" stroke-linejoin="round"/>
</svg>
