<svg width="18" height="12" viewBox="0 0 18 12" fill="none" xmlns="http://www.w3.org/2000/svg">
<path d="M12.472 1.53269C12.1778 1.24111 12.1757 0.766238 12.4673 0.472041C12.7589 0.177844 13.2338 0.175726 13.528 0.467309L15.3227 2.2461C15.9987 2.91604 16.5511 3.46359 16.9429 3.95146C17.3504 4.45878 17.6453 4.97372 17.7241 5.59184C17.7586 5.86286 17.7586 6.13714 17.7241 6.40816C17.6453 7.02628 17.3504 7.54122 16.9429 8.04854C16.5511 8.53642 15.9987 9.08396 15.3227 9.75391L13.528 11.5327C13.2338 11.8243 12.7589 11.8222 12.4673 11.528C12.1757 11.2338 12.1778 10.7589 12.472 10.4673L14.235 8.72C14.9505 8.01086 15.4413 7.52282 15.7734 7.10929C15.8813 6.97491 15.9655 6.8566 16.0309 6.75H1C0.585787 6.75 0.25 6.41421 0.25 6C0.25 5.58579 0.585787 5.25 1 5.25H16.0309C15.9655 5.1434 15.8813 5.02509 15.7734 4.89071C15.4413 4.47718 14.9505 3.98914 14.235 3.28L12.472 1.53269Z" fill="white"/>
</svg>
