<svg width="20" height="24" viewBox="0 0 20 24" fill="none" xmlns="http://www.w3.org/2000/svg">
<path d="M16.5506 12.7522C16.5206 9.7125 19.0294 8.25525 19.1411 8.1825C17.7311 6.11925 15.5351 5.83725 14.7529 5.80425C12.8839 5.61525 11.1064 6.9045 10.1576 6.9045C9.21189 6.9045 7.74789 5.832 6.19764 5.8605C4.16064 5.8905 2.28189 7.04475 1.23339 8.8695C-0.883112 12.5422 0.691139 17.9827 2.75439 20.9617C3.76239 22.4197 4.96464 24.057 6.54264 23.9985C8.06214 23.9377 8.63739 23.0152 10.4741 23.0152C12.3109 23.0152 12.8276 23.9985 14.4364 23.9685C16.0714 23.9377 17.1079 22.4827 18.1091 21.0202C19.2664 19.329 19.7434 17.691 19.7711 17.607C19.7351 17.5905 16.5821 16.383 16.5506 12.7522ZM13.5289 3.8325C14.3666 2.81625 14.9321 1.40625 14.7776 0C13.5709 0.0495 12.1084 0.804 11.2429 1.81725C10.4659 2.7165 9.78639 4.152 9.96864 5.5305C11.3156 5.6355 12.6904 4.84575 13.5289 3.8325Z" fill="black"/>
</svg>
