<svg width="12" height="6" viewBox="0 0 12 6" fill="none" xmlns="http://www.w3.org/2000/svg">
<path d="M11.5327 1.52796C11.8243 1.23376 11.8222 0.758893 11.528 0.467309C11.2338 0.175726 10.7589 0.177844 10.4673 0.472041L8.72 2.23501C8.01086 2.9505 7.52282 3.44131 7.10929 3.77341C6.7076 4.096 6.44958 4.20668 6.2185 4.23613C6.07341 4.25462 5.92659 4.25462 5.78149 4.23613C5.55042 4.20668 5.2924 4.096 4.89071 3.77341C4.47718 3.44131 3.98914 2.9505 3.28 2.23501L1.53269 0.472041C1.24111 0.177844 0.766238 0.175725 0.472041 0.467309C0.177844 0.758892 0.175726 1.23376 0.467309 1.52796L2.2461 3.32269C2.91604 3.99866 3.46359 4.55114 3.95146 4.94294C4.45878 5.35037 4.97372 5.6453 5.59184 5.72409C5.86286 5.75864 6.13714 5.75864 6.40816 5.72409C7.02628 5.6453 7.54122 5.35037 8.04854 4.94294C8.53641 4.55114 9.08396 3.99866 9.75391 3.32269L11.5327 1.52796Z" fill="#12D18E"/>
</svg>
