<svg width="18" height="18" viewBox="0 0 18 18" fill="none" xmlns="http://www.w3.org/2000/svg">
<path fill-rule="evenodd" clip-rule="evenodd" d="M11.0227 1.72247L11.1127 1.77447C11.8909 2.22369 12.5397 2.59828 13.0148 2.96492C13.5163 3.35191 13.9143 3.79611 14.0811 4.41829C14.2478 5.04048 14.1252 5.62417 13.8844 6.21006C13.6562 6.76514 13.2816 7.41397 12.8323 8.19206L8.95681 14.9048C8.65987 15.4201 8.42508 15.8275 8.06772 16.1346C7.71037 16.4416 7.27222 16.6124 6.71809 16.8283L6.56835 16.8868C5.54013 17.2885 4.69257 17.6197 3.99851 17.7819C3.27263 17.9514 2.57176 17.9726 1.91849 17.5954C1.26522 17.2182 0.933064 16.6007 0.716992 15.8873C0.510393 15.2051 0.373413 14.3056 0.207228 13.2142L0.18297 13.0553C0.0929405 12.4674 0.0217532 12.0026 0.108988 11.5396C0.119892 11.4817 0.133113 11.4247 0.148482 11.3683C0.256063 10.9731 0.468907 10.6052 0.72947 10.1547L4.60509 3.44206C5.0543 2.66394 5.42889 2.01509 5.79553 1.53997C6.18253 1.03849 6.62672 0.640463 7.24891 0.473749C7.87109 0.307036 8.45479 0.42964 9.04068 0.670441C9.59576 0.898579 10.2446 1.27321 11.0227 1.72247ZM5.50313 4.88661L11.1323 8.13661L7.70885 14.0662C7.3359 14.7122 7.22926 14.8773 7.09017 14.9968C6.95108 15.1164 6.77174 15.1969 6.07696 15.4684C4.98049 15.8967 4.23373 16.1865 3.65725 16.3212C3.10038 16.4513 2.84769 16.3998 2.66849 16.2963C2.48929 16.1929 2.31836 15.9998 2.1526 15.4525C1.981 14.8859 1.85857 14.0943 1.68132 12.9305C1.56901 12.1931 1.5491 11.9975 1.58305 11.8173C1.61701 11.6371 1.70673 11.4622 2.07969 10.8162L5.50313 4.88661ZM12.497 5.63984C12.3645 5.96228 12.1618 6.34141 11.8807 6.83667L6.2547 3.58848C6.54308 3.09745 6.77007 2.73237 6.98305 2.45638C7.26751 2.08776 7.45912 1.97034 7.63713 1.92264C7.81515 1.87494 8.0398 1.88083 8.47046 2.05783C8.92125 2.24311 9.48285 2.56551 10.3177 3.04751C11.1526 3.52952 11.7126 3.85468 12.0984 4.15244C12.467 4.4369 12.5845 4.62851 12.6322 4.80652C12.6799 4.98454 12.674 5.20919 12.497 5.63984Z" fill="#212121"/>
<path d="M9.65967 17.2508C9.65967 16.8365 9.99545 16.5008 10.4097 16.5008H16.4097C16.8239 16.5008 17.1597 16.8365 17.1597 17.2508C17.1597 17.665 16.8239 18.0008 16.4097 18.0008H10.4097C9.99545 18.0008 9.65967 17.665 9.65967 17.2508Z" fill="#212121"/>
</svg>
