<svg width="16" height="16" viewBox="0 0 16 16" fill="none" xmlns="http://www.w3.org/2000/svg">
<path fill-rule="evenodd" clip-rule="evenodd" d="M10.6355 2.20636C10.1221 2.16699 9.48897 2.16699 8.68343 2.16699H7.55934C6.7538 2.16699 6.12063 2.16699 5.60728 2.20636C5.08332 2.24655 4.64683 2.32971 4.24113 2.5157C3.57084 2.82297 3.00339 3.31705 2.60683 3.9387C2.50329 4.101 2.41754 4.27213 2.34438 4.45671C2.09548 5.08468 1.98042 5.91352 1.81298 7.11959L1.79882 7.22158C1.65622 8.2483 1.54474 9.05093 1.51088 9.69744C1.4765 10.3539 1.51809 10.9009 1.71555 11.4031C2.0383 12.2239 2.63423 12.9083 3.40284 13.3409C3.8731 13.6056 4.40919 13.722 5.06409 13.7783C5.70911 13.8337 6.51944 13.8337 7.55601 13.8337H8.68676C9.72333 13.8337 10.5337 13.8337 11.1787 13.7783C11.8336 13.722 12.3697 13.6056 12.8399 13.3409C13.6085 12.9083 14.2045 12.2239 14.5272 11.4031C14.7247 10.9009 14.7663 10.3539 14.7319 9.69744C14.698 9.05092 14.5866 8.24826 14.4439 7.2215L14.4277 7.10446C14.2503 5.82648 14.1315 4.97065 13.8421 4.32309C13.7819 4.18833 13.7139 4.06089 13.6359 3.9387C13.2394 3.31705 12.6719 2.82297 12.0016 2.5157C11.5959 2.32971 11.1595 2.24655 10.6355 2.20636ZM4.65785 3.42473C4.91359 3.30749 5.21934 3.23905 5.68375 3.20343C6.15441 3.16733 6.74933 3.16699 7.57999 3.16699H8.66278C9.49344 3.16699 10.0884 3.16733 10.559 3.20343C11.0234 3.23905 11.3292 3.30749 11.5849 3.42473C12.0664 3.64544 12.476 3.99654 12.7678 4.43785L12.401 4.80464C11.2799 5.92574 10.4739 6.73026 9.77866 7.26068C9.09499 7.7823 8.57757 7.99153 8.04049 7.99153C7.50342 7.99153 6.986 7.7823 6.30233 7.26068C5.60712 6.73026 4.80111 5.92574 3.68 4.80464L3.41273 4.53736C3.42482 4.51667 3.4372 4.49641 3.44989 4.47652C3.743 4.01704 4.16242 3.65185 4.65785 3.42473ZM13.1542 5.46562C13.2505 5.91067 13.334 6.49907 13.4502 7.33541C13.5968 8.39094 13.7019 9.15115 13.7333 9.74974C13.7644 10.3434 13.7188 10.7263 13.5966 11.0371C13.358 11.6438 12.9176 12.1497 12.3495 12.4694C12.0584 12.6333 11.6854 12.7311 11.0931 12.7819C10.4959 12.8332 9.72845 12.8337 8.66278 12.8337H7.57999C6.51432 12.8337 5.74688 12.8332 5.14967 12.7819C4.55738 12.7311 4.18437 12.6333 3.89332 12.4694C3.32521 12.1497 2.88475 11.6438 2.64619 11.0371C2.52398 10.7263 2.47842 10.3434 2.50951 9.74974C2.54086 9.15115 2.64601 8.39095 2.79261 7.33541C2.8973 6.58166 2.97528 6.02882 3.06075 5.5996C4.11999 6.65879 4.95503 7.49055 5.69575 8.0557C6.46837 8.64519 7.19686 8.99153 8.04049 8.99153C8.88413 8.99153 9.61262 8.64519 10.3852 8.0557C11.1401 7.47978 11.9929 6.62699 13.081 5.5388L13.1542 5.46562Z" fill="#757575"/>
</svg>
