<svg width="16" height="16" viewBox="0 0 16 16" fill="none" xmlns="http://www.w3.org/2000/svg">
<g clip-path="url(#clip0_1_10202)">
<path d="M8.50016 7.33325C8.50016 7.05711 8.2763 6.83325 8.00016 6.83325C7.72402 6.83325 7.50016 7.05711 7.50016 7.33325V11.3333C7.50016 11.6094 7.72402 11.8333 8.00016 11.8333C8.2763 11.8333 8.50016 11.6094 8.50016 11.3333V7.33325Z" fill="#12D18E"/>
<path fill-rule="evenodd" clip-rule="evenodd" d="M8.00016 0.833252C4.04212 0.833252 0.833496 4.04188 0.833496 7.99992C0.833496 11.958 4.04212 15.1666 8.00016 15.1666C11.9582 15.1666 15.1668 11.958 15.1668 7.99992C15.1668 4.04188 11.9582 0.833252 8.00016 0.833252ZM1.8335 7.99992C1.8335 4.59416 4.59441 1.83325 8.00016 1.83325C11.4059 1.83325 14.1668 4.59416 14.1668 7.99992C14.1668 11.4057 11.4059 14.1666 8.00016 14.1666C4.59441 14.1666 1.8335 11.4057 1.8335 7.99992Z" fill="#12D18E"/>
<path d="M8.66683 5.33325C8.66683 5.70144 8.36835 5.99992 8.00016 5.99992C7.63197 5.99992 7.33349 5.70144 7.33349 5.33325C7.33349 4.96506 7.63197 4.66658 8.00016 4.66658C8.36835 4.66658 8.66683 4.96506 8.66683 5.33325Z" fill="#12D18E"/>
</g>
<defs>
<clipPath id="clip0_1_10202">
<rect width="16" height="16" fill="white"/>
</clipPath>
</defs>
</svg>
