<svg width="200" height="150" viewBox="0 0 200 150" fill="none" xmlns="http://www.w3.org/2000/svg">
<path d="M172.643 104.873H170.812C170.812 101.196 167.846 98.2144 164.184 98.2144C160.521 98.2144 157.553 101.196 157.553 104.873H156.217C154.531 104.873 153.166 106.364 153.166 108.201C153.166 110.041 154.531 111.532 156.217 111.532H172.643C174.328 111.532 175.693 110.041 175.693 108.201C175.693 106.364 174.328 104.873 172.643 104.873Z" fill="url(#paint0_linear_1_10234)"/>
<path d="M45.457 103.575H43.9844C43.9844 100.615 41.5957 98.2144 38.6465 98.2144C35.6992 98.2144 33.3105 100.615 33.3105 103.575H32.2344C30.8789 103.575 29.7793 104.773 29.7793 106.254C29.7793 107.733 30.8789 108.933 32.2344 108.933H45.457C46.8125 108.933 47.9121 107.733 47.9121 106.254C47.9121 104.773 46.8125 103.575 45.457 103.575Z" fill="url(#paint1_linear_1_10234)"/>
<path d="M96.9414 106.614C56.707 106.614 24.0898 123.738 24.0898 144.859H169.793C169.793 123.738 137.176 106.614 96.9414 106.614Z" fill="url(#paint2_linear_1_10234)"/>
<path d="M57.0938 107.255C57.2715 106.71 57.3672 106.13 57.3672 105.524C57.3672 102.44 54.8789 99.9417 51.8105 99.9417C48.8281 99.9417 46.3965 102.299 46.2578 105.259C44.0215 105.471 42.2734 107.381 42.2734 109.707C42.2734 112.176 44.2441 114.177 46.6758 114.177C48.0371 114.177 49.2539 113.549 50.0605 112.563C50.8301 113.863 52.2344 114.734 53.8359 114.734C56.2676 114.734 58.2383 112.731 58.2383 110.264C58.2383 109.105 57.8047 108.05 57.0938 107.255Z" fill="url(#paint3_linear_1_10234)"/>
<path d="M53.1367 110.442L52.6289 109.934L50.6055 111.966V108.865H49.5645V112.113L48.418 110.964L47.9121 111.472L49.5645 113.131V123.51H50.6055V112.984L53.1367 110.442Z" fill="#7F7F7F"/>
<path d="M157.865 110.264C158.043 109.717 158.141 109.136 158.141 108.53C158.141 105.447 155.652 102.948 152.582 102.948C149.602 102.948 147.17 105.306 147.031 108.266C144.795 108.479 143.045 110.39 143.045 112.716C143.045 115.183 145.016 117.186 147.447 117.186C148.809 117.186 150.025 116.556 150.834 115.571C151.604 116.87 153.006 117.741 154.609 117.741C157.041 117.741 159.012 115.74 159.012 113.271C159.012 112.112 158.578 111.056 157.865 110.264Z" fill="url(#paint4_linear_1_10234)"/>
<path d="M153.908 113.449L153.402 112.941L151.379 114.973V111.872H150.338V115.122L149.191 113.971L148.686 114.479L150.338 116.138V126.517H151.379V115.991L153.908 113.449Z" fill="#7F7F7F"/>
<path d="M40.4707 117.466C40.5625 117.182 40.6133 116.876 40.6133 116.56C40.6133 114.946 39.3105 113.637 37.7031 113.637C36.1426 113.637 34.8691 114.871 34.7969 116.421C33.627 116.532 32.709 117.533 32.709 118.751C32.709 120.043 33.7422 121.09 35.0156 121.09C35.7285 121.09 36.3652 120.761 36.7871 120.245C37.1914 120.926 37.9258 121.381 38.7637 121.381C40.0371 121.381 41.0703 120.333 41.0703 119.041C41.0703 118.435 40.8418 117.882 40.4707 117.466Z" fill="url(#paint5_linear_1_10234)"/>
<path d="M38.3984 119.135L38.1328 118.868L37.0723 119.933V118.309H36.5273V120.01L35.9277 119.407L35.6621 119.674L36.5273 120.543V125.976H37.0723V120.465L38.3984 119.135Z" fill="#7F7F7F"/>
<path d="M133.041 69.661H129.266C129.266 62.0728 123.139 55.9202 115.582 55.9202C108.023 55.9202 101.896 62.0728 101.896 69.661H99.1387C95.6621 69.661 92.8438 72.7383 92.8438 76.5314C92.8438 80.3265 95.6621 83.4038 99.1387 83.4038H133.041C136.52 83.4038 139.338 80.3265 139.338 76.5314C139.338 72.7383 136.52 69.661 133.041 69.661Z" fill="url(#paint6_linear_1_10234)"/>
<path d="M90.1348 75.573H88.5117C88.5117 72.3074 85.875 69.6616 82.625 69.6616C79.3731 69.6616 76.7383 72.3074 76.7383 75.573H75.5527C74.0566 75.573 72.8438 76.8969 72.8438 78.5286C72.8438 80.1604 74.0566 81.4843 75.5527 81.4843H90.1348C91.6309 81.4843 92.8437 80.1604 92.8437 78.5286C92.8437 76.8969 91.6309 75.573 90.1348 75.573Z" fill="url(#paint7_linear_1_10234)"/>
<path d="M59.8046 80.1387C59.3593 81.643 57.705 82.4746 57.705 82.4746C57.705 82.4746 56.7734 80.8702 57.2187 79.3659C57.666 77.8636 59.3183 77.03 59.3183 77.03C59.3183 77.03 60.25 78.6344 59.8046 80.1387Z" fill="#D6D6D6"/>
<path d="M141.457 93.1494C141.012 94.6537 139.359 95.4873 139.359 95.4873C139.359 95.4873 138.428 93.881 138.873 92.3786C139.318 90.8743 140.971 90.0408 140.971 90.0408C140.971 90.0408 141.902 91.6471 141.457 93.1494Z" fill="#D6D6D6"/>
<path d="M134.311 127.061C132.936 127.808 131.182 127.224 131.182 127.224C131.182 127.224 131.652 125.427 133.027 124.68C134.4 123.933 136.156 124.517 136.156 124.517C136.156 124.517 135.684 126.314 134.311 127.061Z" fill="#D6D6D6"/>
<path d="M51.0545 85.3281C50.7791 86.2597 49.7557 86.7755 49.7557 86.7755C49.7557 86.7755 49.1795 85.7811 49.4549 84.8495C49.7303 83.9199 50.7557 83.4041 50.7557 83.4041C50.7557 83.4041 51.3319 84.3965 51.0545 85.3281Z" fill="#D6D6D6"/>
<path d="M83.8809 95.2798H102.248C103.361 95.2798 103.918 95.8388 103.918 96.9567C103.918 98.0746 103.361 98.6336 102.248 98.6336H83.8809C82.7676 98.6336 82.2109 98.0746 82.2109 96.9567C82.2109 95.8388 82.7676 95.2798 83.8809 95.2798Z" fill="white"/>
<path d="M83.8809 103.662H97.2383C98.3516 103.662 98.9082 104.221 98.9082 105.339C98.9082 106.457 98.3516 107.016 97.2383 107.016H83.8809C82.7676 107.016 82.2109 106.457 82.2109 105.339C82.2109 104.221 82.7676 103.662 83.8809 103.662Z" fill="white"/>
<path d="M120.385 85.0476L119.699 82.4175L121.838 83.2412L120.385 85.0476Z" fill="#EAEAEA"/>
<path d="M115.83 80.6503L126.227 76.7983L118.119 81.48L115.83 80.6503ZM118.199 81.5957L126.309 76.9141L119.42 81.9683L120.088 84.6004L118.199 81.5957Z" fill="#EAEAEA"/>
<path d="M123.357 83.6077L121.725 82.9625L119.586 82.1407L126.475 77.0864L123.357 83.6077Z" fill="#EAEAEA"/>
<path d="M87.8672 83.0635H116.211V93.3191H87.8672V83.0635Z" fill="#EAEAEA"/>
<path d="M87.8672 93.3191L74.7734 121.373L74.707 101.066L87.8672 83.0635V93.3191Z" fill="url(#paint8_linear_1_10234)"/>
<path d="M116.211 93.3191L129.035 121.373L129.102 101.066L116.211 83.0635V93.3191Z" fill="url(#paint9_linear_1_10234)"/>
<path d="M129.035 121.373H74.7734L87.8672 93.3186H116.211L129.035 121.373Z" fill="#F4F4F4"/>
<path d="M129.102 120.875C129.102 121.957 128.227 122.836 127.148 122.836H76.6602C75.582 122.836 74.707 121.957 74.707 120.875V101.654C74.707 100.571 75.582 99.6926 76.6602 99.6926H127.148C128.227 99.6926 129.102 100.571 129.102 101.654V120.875Z" fill="url(#paint10_linear_1_10234)"/>
<path d="M110.27 95.8489C110.27 95.8489 110.377 95.743 110.523 95.5508" stroke="#C1C1C1" stroke-linecap="round"/>
<path d="M110.928 94.9127C111.258 94.2753 111.52 93.3613 111.164 92.3434C111.164 92.3434 109.822 90.4194 109.312 92.6435C109.312 92.6435 110.406 94.6303 112.998 92.771C112.998 92.771 114.355 91.0607 114.568 88.668C114.568 88.668 115.154 86.232 116.074 85.8692C116.074 85.8692 116.865 85.3691 117.871 85.1533" stroke="#C1C1C1" stroke-linecap="round" stroke-dasharray="3.86 3.86"/>
<path d="M118.244 85.0891C118.373 85.0715 118.502 85.0618 118.633 85.0579" stroke="#C1C1C1" stroke-linecap="round"/>
<defs>
<linearGradient id="paint0_linear_1_10234" x1="164.429" y1="111.531" x2="164.429" y2="98.2145" gradientUnits="userSpaceOnUse">
<stop offset="0.1626" stop-color="white" stop-opacity="0.5"/>
<stop offset="1" stop-color="#C6C6C6" stop-opacity="0.8"/>
</linearGradient>
<linearGradient id="paint1_linear_1_10234" x1="38.8458" y1="108.933" x2="38.8458" y2="98.2146" gradientUnits="userSpaceOnUse">
<stop offset="0.1626" stop-color="white" stop-opacity="0.5"/>
<stop offset="1" stop-color="#C6C6C6" stop-opacity="0.8"/>
</linearGradient>
<linearGradient id="paint2_linear_1_10234" x1="96.941" y1="144.86" x2="96.941" y2="106.614" gradientUnits="userSpaceOnUse">
<stop offset="0.1626" stop-color="white" stop-opacity="0.5"/>
<stop offset="1" stop-color="#C6C6C6" stop-opacity="0.8"/>
</linearGradient>
<linearGradient id="paint3_linear_1_10234" x1="50.2556" y1="99.9423" x2="50.2556" y2="114.733" gradientUnits="userSpaceOnUse">
<stop offset="0.1626" stop-color="#F1F0F5"/>
<stop offset="1" stop-color="#C5C9D2"/>
</linearGradient>
<linearGradient id="paint4_linear_1_10234" x1="151.028" y1="102.949" x2="151.028" y2="117.74" gradientUnits="userSpaceOnUse">
<stop offset="0.1626" stop-color="#F1F0F5"/>
<stop offset="1" stop-color="#C5C9D2"/>
</linearGradient>
<linearGradient id="paint5_linear_1_10234" x1="36.8898" y1="113.637" x2="36.8898" y2="121.381" gradientUnits="userSpaceOnUse">
<stop offset="0.1626" stop-color="#F1F0F5"/>
<stop offset="1" stop-color="#C5C9D2"/>
</linearGradient>
<linearGradient id="paint6_linear_1_10234" x1="116.09" y1="83.4033" x2="116.09" y2="55.9192" gradientUnits="userSpaceOnUse">
<stop offset="0.1626" stop-color="white" stop-opacity="0.5"/>
<stop offset="1" stop-color="#C6C6C6" stop-opacity="0.8"/>
</linearGradient>
<linearGradient id="paint7_linear_1_10234" x1="82.8436" y1="81.4838" x2="82.8436" y2="69.6619" gradientUnits="userSpaceOnUse">
<stop offset="0.1626" stop-color="white" stop-opacity="0.5"/>
<stop offset="1" stop-color="#C6C6C6" stop-opacity="0.8"/>
</linearGradient>
<linearGradient id="paint8_linear_1_10234" x1="81.2868" y1="83.0634" x2="81.2868" y2="121.374" gradientUnits="userSpaceOnUse">
<stop offset="0.1626" stop-color="#DDDDDD"/>
<stop offset="1" stop-color="#C6C6C6"/>
</linearGradient>
<linearGradient id="paint9_linear_1_10234" x1="122.656" y1="83.0634" x2="122.656" y2="121.374" gradientUnits="userSpaceOnUse">
<stop offset="0.1626" stop-color="#DDDDDD"/>
<stop offset="1" stop-color="#C6C6C6"/>
</linearGradient>
<linearGradient id="paint10_linear_1_10234" x1="101.904" y1="99.6926" x2="101.904" y2="122.836" gradientUnits="userSpaceOnUse">
<stop offset="0.1626" stop-color="#DDDDDD"/>
<stop offset="1" stop-color="#C6C6C6"/>
</linearGradient>
</defs>
</svg>
