<svg width="12" height="15" viewBox="0 0 12 15" fill="none" xmlns="http://www.w3.org/2000/svg">
<path fill-rule="evenodd" clip-rule="evenodd" d="M5.39982 0.833252C3.13612 0.833252 1.38466 2.81727 1.66544 5.06349L1.71834 5.48673C1.79576 6.10603 1.56954 6.72462 1.11087 7.14788C0.160413 8.02495 -0.103651 9.42091 0.460783 10.5845L0.529683 10.7266C1.02712 11.7521 2.03716 12.4237 3.16469 12.4938L3.29021 12.709C3.96541 13.8665 5.01741 14.4999 6.1221 14.4999C7.22679 14.4999 8.27879 13.8665 8.95399 12.709L9.08148 12.4904C10.0286 12.4156 10.8922 11.9008 11.4072 11.0915C12.1953 9.85319 11.9866 8.22873 10.911 7.22989L10.8818 7.20272C10.3894 6.74547 10.147 6.07934 10.2304 5.41259L10.2734 5.06797C10.5545 2.81937 8.8012 0.833252 6.5351 0.833252H5.39982ZM3.44595 11.4999C3.45197 11.4998 3.45798 11.4998 3.46398 11.4999H8.78021C8.78622 11.4998 8.79224 11.4998 8.79826 11.4999H8.84136C9.53929 11.4999 10.1888 11.1434 10.5636 10.5546C11.0925 9.72342 10.9524 8.63307 10.2305 7.96265L10.2013 7.93547C9.47327 7.25938 9.11485 6.27441 9.23808 5.28856L9.28116 4.94394C9.48763 3.29219 8.1997 1.83325 6.5351 1.83325H5.39982C3.73762 1.83325 2.45155 3.29009 2.65772 4.93946L2.71062 5.36269C2.82806 6.30222 2.48487 7.24068 1.78903 7.88279C1.16253 8.46092 0.988467 9.38109 1.36052 10.1481L1.42942 10.2902C1.78833 11.0301 2.53843 11.4999 3.36082 11.4999H3.44595ZM6.1221 13.4999C5.50801 13.4999 4.85282 13.1917 4.34659 12.4999H7.89761C7.39138 13.1917 6.73619 13.4999 6.1221 13.4999Z" fill="#212121"/>
</svg>
