<svg width="24" height="24" viewBox="0 0 24 24" fill="none" xmlns="http://www.w3.org/2000/svg">
<path d="M6.56844 12.2174H4.39585C3.79662 12.2174 3.30957 12.7044 3.30957 13.3036V17.6488C3.30957 18.248 3.79667 18.7351 4.39585 18.7351H6.56844C7.16766 18.7351 7.65472 18.248 7.65472 17.6488V13.3036C7.65472 12.7044 7.16762 12.2174 6.56844 12.2174ZM13.0862 4.61328H10.9136C10.3144 4.61328 9.82733 5.10038 9.82733 5.69956V17.6488C9.82733 18.248 10.3144 18.7351 10.9136 18.7351H13.0862C13.6854 18.7351 14.1725 18.248 14.1725 17.6488V5.69956C14.1725 5.10034 13.6854 4.61328 13.0862 4.61328ZM19.604 7.87217H17.4314C16.8322 7.87217 16.3451 8.35925 16.3451 8.95845V17.6488C16.3451 18.248 16.8322 18.7351 17.4314 18.7351H19.604C20.2032 18.7351 20.6903 18.248 20.6903 17.6488V8.95845C20.6903 8.35923 20.2032 7.87217 19.604 7.87217Z" fill="#212121"/>
</svg>
