<svg width="14" height="14" viewBox="0 0 14 14" fill="none" xmlns="http://www.w3.org/2000/svg">
<path fill-rule="evenodd" clip-rule="evenodd" d="M9.23994 1.8088C8.45621 -0.60326 5.04379 -0.60326 4.26006 1.8088C4.02963 2.51798 3.36877 2.99813 2.6231 2.99813C0.0869033 2.99813 -0.967595 6.24354 1.08423 7.73427C1.68749 8.17257 1.93992 8.94946 1.70949 9.65864C0.925766 12.0707 3.68648 14.0765 5.7383 12.5857C6.34156 12.1474 7.15844 12.1474 7.7617 12.5857C9.81352 14.0765 12.5742 12.0707 11.7905 9.65864C11.5601 8.94946 11.8125 8.17257 12.4158 7.73427C14.4676 6.24354 13.4131 2.99813 10.8769 2.99813C10.1312 2.99813 9.47036 2.51798 9.23994 1.8088ZM5.11304 2.08595C5.62828 0.500187 7.87172 0.500187 8.38696 2.08595C8.73746 3.16466 9.74268 3.895 10.8769 3.895C12.5443 3.895 13.2375 6.02863 11.8886 7.00869C10.971 7.67537 10.587 8.85708 10.9375 9.93579C11.4528 11.5216 9.6378 12.8402 8.28887 11.8602C7.37126 11.1935 6.12874 11.1935 5.21113 11.8602C3.8622 12.8402 2.04722 11.5216 2.56247 9.93579C2.91296 8.85708 2.529 7.67537 1.6114 7.00869C0.262465 6.02863 0.955725 3.895 2.6231 3.895C3.75732 3.895 4.76254 3.16466 5.11304 2.08595Z" fill="#212121"/>
</svg>
