<svg width="88" height="88" viewBox="0 0 88 88" fill="none" xmlns="http://www.w3.org/2000/svg">
<path d="M5.56641 17.2285H77.9465L77.4913 63.8887L5.56641 65.4819V17.2285Z" fill="#12D18E"/>
<path d="M35.8795 42.2237C37.6656 40.7743 38.9589 38.8073 39.5816 36.593C40.2042 34.3788 40.1257 32.026 39.3568 29.8581C38.5879 27.6903 37.1663 25.8139 35.2876 24.4868C33.4089 23.1598 31.1652 22.4473 28.865 22.4473C26.5648 22.4473 24.3212 23.1598 22.4424 24.4868C20.5637 25.8139 19.1421 27.6903 18.3732 29.8581C17.6043 32.026 17.5258 34.3788 18.1484 36.593C18.7711 38.8073 20.0644 40.7743 21.8505 42.2237C19.0015 43.5565 16.5912 45.6735 14.9018 48.3266C13.2125 50.9797 12.314 54.0593 12.3115 57.2046C12.3115 57.7534 12.5295 58.2797 12.9176 58.6677C13.3056 59.0558 13.8319 59.2738 14.3807 59.2738C14.9295 59.2738 15.4558 59.0558 15.8438 58.6677C16.2319 58.2797 16.4499 57.7534 16.4499 57.2046C16.4499 55.5742 16.771 53.9598 17.3949 52.4536C18.0189 50.9473 18.9333 49.5786 20.0862 48.4258C21.239 47.2729 22.6077 46.3585 24.114 45.7345C25.6202 45.1106 27.2346 44.7895 28.865 44.7895C30.4954 44.7895 32.1098 45.1106 33.6161 45.7345C35.1223 46.3585 36.491 47.2729 37.6438 48.4258C38.7967 49.5786 39.7112 50.9473 40.3351 52.4536C40.959 53.9598 41.2801 55.5742 41.2801 57.2046C41.2801 57.7534 41.4981 58.2797 41.8862 58.6677C42.2742 59.0558 42.8005 59.2738 43.3493 59.2738C43.8981 59.2738 44.4244 59.0558 44.8124 58.6677C45.2005 58.2797 45.4185 57.7534 45.4185 57.2046C45.416 54.0593 44.5175 50.9797 42.8282 48.3266C41.1388 45.6735 38.7285 43.5565 35.8795 42.2237ZM21.8712 33.6573C21.8712 32.274 22.2813 30.9218 23.0498 29.7717C23.8183 28.6216 24.9106 27.7251 26.1886 27.1958C27.4665 26.6665 28.8728 26.528 30.2294 26.7978C31.5861 27.0677 32.8323 27.7338 33.8104 28.7119C34.7885 29.69 35.4546 30.9362 35.7245 32.2928C35.9943 33.6495 35.8558 35.0557 35.3265 36.3337C34.7971 37.6117 33.9007 38.704 32.7506 39.4724C31.6004 40.2409 30.2483 40.6511 28.865 40.6511C27.0118 40.6457 25.2361 39.9071 23.9256 38.5966C22.6152 37.2862 21.8766 35.5105 21.8712 33.6573ZM59.9028 28.4843H68.1795C68.7283 28.4843 69.2546 28.2663 69.6427 27.8783C70.0307 27.4902 70.2487 26.9639 70.2487 26.4151C70.2487 25.8663 70.0307 25.34 69.6427 24.952C69.2546 24.5639 68.7283 24.3459 68.1795 24.3459H59.9028C59.354 24.3459 58.8277 24.5639 58.4397 24.952C58.0516 25.34 57.8336 25.8663 57.8336 26.4151C57.8336 26.9639 58.0516 27.4902 58.4397 27.8783C58.8277 28.2663 59.354 28.4843 59.9028 28.4843Z" fill="white"/>
<path d="M82.2084 40.1338L81.6291 39.9476V22.2767C81.6291 21.1898 81.415 20.1136 80.999 19.1094C80.5831 18.1052 79.9734 17.1928 79.2049 16.4242C78.4363 15.6556 77.5239 15.046 76.5197 14.63C75.5155 14.2141 74.4392 14 73.3523 14H11.2767C10.1898 14 9.11355 14.2141 8.10937 14.63C7.10519 15.046 6.19277 15.6556 5.4242 16.4242C4.65564 17.1928 4.04598 18.1052 3.63003 19.1094C3.21408 20.1136 3 21.1898 3 22.2767V59.5221C3 60.609 3.21408 61.6853 3.63003 62.6895C4.04598 63.6936 4.65564 64.6061 5.4242 65.3746C6.19277 66.1432 7.10519 66.7529 8.10937 67.1688C9.11355 67.5847 10.1898 67.7988 11.2767 67.7988H59.7785L66.793 73.1787C67.4858 73.7156 68.3374 74.007 69.2139 74.007C70.0904 74.007 70.9421 73.7156 71.6349 73.1787L81.567 65.5641C82.4201 64.8844 82.9704 63.8954 83.0982 62.8121L84.9811 44.3136C85.07 43.4043 84.8428 42.4921 84.3378 41.7308C83.8327 40.9695 83.0807 40.4055 82.2084 40.1338ZM53.4468 44.2722L55.3297 62.7707C55.3698 63.0579 55.432 63.3415 55.5159 63.6191H11.2767C10.1792 63.6191 9.12657 63.1831 8.35047 62.407C7.57438 61.6309 7.13837 60.5783 7.13837 59.4807V22.2767C7.13837 21.1792 7.57438 20.1266 8.35047 19.3505C9.12657 18.5744 10.1792 18.1384 11.2767 18.1384H73.3523C74.4499 18.1384 75.5025 18.5744 76.2786 19.3505C77.0547 20.1266 77.4907 21.1792 77.4907 22.2767V38.6854L70.3727 36.492C69.617 36.2642 68.8109 36.2642 68.0552 36.492L56.2195 40.1338C55.3472 40.4055 54.5951 40.9695 54.0901 41.7308C53.5851 42.4921 53.3578 43.4043 53.4468 44.3136V44.2722ZM79.0426 62.2327L69.2139 69.868L61.7442 64.1364L59.4474 62.3776L57.5851 44.086L69.1726 40.4856L78.9391 43.5066L80.8221 44.086L79.0426 62.2327Z" fill="#12D18E"/>
<path d="M81.6284 39.9477L82.2078 40.1339C83.0801 40.4056 83.8321 40.9696 84.3371 41.7309C84.8422 42.4923 85.0694 43.4044 84.9805 44.3137L83.0975 62.8122C82.9698 63.8955 82.4195 64.8845 81.5663 65.5642L71.6342 73.1788C70.9414 73.7157 70.0898 74.0071 69.2133 74.0071C68.3368 74.0071 67.4852 73.7157 66.7924 73.1788L59.7778 67.799L55.5153 63.6192C55.4314 63.3416 55.3691 63.058 55.3291 62.7708L53.4461 44.2723V44.3137C53.3572 43.4044 53.5844 42.4923 54.0895 41.7309C54.5945 40.9696 55.3465 40.4056 56.2188 40.1339L68.0546 36.4922C68.8103 36.2643 69.6163 36.2643 70.372 36.4922L77.49 38.6855L81.6284 39.9477Z" fill="#A3EDD3"/>
<path d="M74.056 49.1765L68.9451 54.2874L67.476 52.839C67.2836 52.645 67.0548 52.4911 66.8026 52.3861C66.5505 52.281 66.28 52.2269 66.0069 52.2269C65.7337 52.2269 65.4633 52.281 65.2111 52.3861C64.959 52.4911 64.7301 52.645 64.5377 52.839C64.1524 53.2267 63.936 53.7511 63.936 54.2978C63.936 54.8444 64.1524 55.3688 64.5377 55.7565L67.476 58.6948C67.8637 59.0802 68.3881 59.2965 68.9348 59.2965C69.4814 59.2965 70.0059 59.0802 70.3935 58.6948L76.9942 52.0941C77.3796 51.7064 77.5959 51.1819 77.5959 50.6353C77.5959 50.0886 77.3796 49.5642 76.9942 49.1765C76.8019 48.9826 76.573 48.8286 76.3209 48.7236C76.0687 48.6185 75.7983 48.5645 75.5251 48.5645C75.252 48.5645 74.9815 48.6185 74.7294 48.7236C74.4772 48.8286 74.2484 48.9826 74.056 49.1765Z" fill="#12D18E"/>
</svg>
