<svg width="28" height="28" viewBox="0 0 28 28" fill="none" xmlns="http://www.w3.org/2000/svg">
<path d="M24.5002 4.66699H3.50016C2.85583 4.66699 2.3335 5.18933 2.3335 5.83366V22.167C2.3335 22.8113 2.85583 23.3337 3.50016 23.3337H24.5002C25.1445 23.3337 25.6668 22.8113 25.6668 22.167V5.83366C25.6668 5.18933 25.1445 4.66699 24.5002 4.66699Z" stroke="#12D18E" stroke-linejoin="round"/>
<path d="M9.91683 14.5837C11.2055 14.5837 12.2502 13.539 12.2502 12.2503C12.2502 10.9617 11.2055 9.91699 9.91683 9.91699C8.62819 9.91699 7.5835 10.9617 7.5835 12.2503C7.5835 13.539 8.62819 14.5837 9.91683 14.5837Z" stroke="#12D18E" stroke-linejoin="round"/>
<path d="M13.4165 18.083C13.4165 16.15 11.8495 14.583 9.9165 14.583C7.98351 14.583 6.4165 16.15 6.4165 18.083" stroke="#12D18E" stroke-linecap="round" stroke-linejoin="round"/>
<path d="M16.3335 11.667H21.0002" stroke="#12D18E" stroke-linecap="round" stroke-linejoin="round"/>
<path d="M17.5 16.333H21" stroke="#12D18E" stroke-linecap="round" stroke-linejoin="round"/>
</svg>
