<svg width="16" height="16" viewBox="0 0 16 16" fill="none" xmlns="http://www.w3.org/2000/svg">
<path d="M8.50016 5.99992C8.50016 5.72378 8.2763 5.49992 8.00016 5.49992C7.72402 5.49992 7.50016 5.72378 7.50016 5.99992V7.49992H6.00016C5.72402 7.49992 5.50016 7.72378 5.50016 7.99992C5.50016 8.27606 5.72402 8.49992 6.00016 8.49992H7.50016V9.99992C7.50016 10.2761 7.72402 10.4999 8.00016 10.4999C8.2763 10.4999 8.50016 10.2761 8.50016 9.99992V8.49992H10.0002C10.2763 8.49992 10.5002 8.27606 10.5002 7.99992C10.5002 7.72378 10.2763 7.49992 10.0002 7.49992H8.50016V5.99992Z" fill="#12D18E"/>
<path fill-rule="evenodd" clip-rule="evenodd" d="M8.00016 0.833252C4.04212 0.833252 0.833496 4.04188 0.833496 7.99992C0.833496 11.958 4.04212 15.1666 8.00016 15.1666C11.9582 15.1666 15.1668 11.958 15.1668 7.99992C15.1668 4.04188 11.9582 0.833252 8.00016 0.833252ZM1.8335 7.99992C1.8335 4.59416 4.59441 1.83325 8.00016 1.83325C11.4059 1.83325 14.1668 4.59416 14.1668 7.99992C14.1668 11.4057 11.4059 14.1666 8.00016 14.1666C4.59441 14.1666 1.8335 11.4057 1.8335 7.99992Z" fill="#12D18E"/>
</svg>
