<svg width="16" height="16" viewBox="0 0 16 16" fill="none" xmlns="http://www.w3.org/2000/svg">
<path fill-rule="evenodd" clip-rule="evenodd" d="M8.00016 14.6666C11.6821 14.6666 14.6668 11.6818 14.6668 7.99992C14.6668 4.31802 11.6821 1.33325 8.00016 1.33325C4.31826 1.33325 1.3335 4.31802 1.3335 7.99992C1.3335 11.6818 4.31826 14.6666 8.00016 14.6666ZM8.50016 5.99992C8.50016 5.72378 8.2763 5.49992 8.00016 5.49992C7.72402 5.49992 7.50016 5.72378 7.50016 5.99992V7.49992H6.00016C5.72402 7.49992 5.50016 7.72378 5.50016 7.99992C5.50016 8.27606 5.72402 8.49992 6.00016 8.49992H7.50016V9.99992C7.50016 10.2761 7.72402 10.4999 8.00016 10.4999C8.2763 10.4999 8.50016 10.2761 8.50016 9.99992V8.49992H10.0002C10.2763 8.49992 10.5002 8.27606 10.5002 7.99992C10.5002 7.72378 10.2763 7.49992 10.0002 7.49992H8.50016V5.99992Z" fill="#12D18E"/>
</svg>
